<?xml version="1.0" encoding="utf-8"?>
<svg viewBox="0 0 500 500" xmlns="http://www.w3.org/2000/svg">
  <g transform="matrix(2.334836, 0, 0, -2.334836, 121.488861, 482.345459)" id="g10" style="">
    <g transform="scale(0.1)" id="g12">
      <path id="path14" style="fill-opacity: 1; fill-rule: evenodd; stroke: none; fill: rgba(143, 143, 143, 0);" d="M -418.508 1933.23 L 1509.054 1933.23 L 1509.054 5.668 L -418.508 5.668 L -418.508 1933.23"/>
      <path id="path16" style="fill-opacity: 1; fill-rule: evenodd; stroke: none; fill: rgb(255, 255, 255);" d="M 1147.374 433.586 C 1147.374 433.586 1147.374 432.402 1147.374 666.906 L 1051.094 666.906 C 1051.094 432.402 1051.094 433.586 1051.094 433.586 L 1147.374 433.586"/>
      <path id="path18" style="fill-opacity: 1; fill-rule: evenodd; stroke: none; fill: rgb(255, 255, 255);" d="M 637.604 530.457 L 637.604 663.363 L 544.281 663.363 L 544.281 561.766 C 544.281 532.23 543.097 523.961 541.328 516.281 C 534.828 495.016 512.382 485.566 489.343 485.566 C 457.449 485.566 442.683 497.969 436.777 517.461 C 435.003 523.961 434.414 531.047 433.824 538.137 C 433.23 545.813 433.824 554.086 433.824 562.945 L 433.824 663.363 L 339.312 663.363 L 339.312 529.871 C 339.312 499.738 349.355 477.297 365.894 461.938 C 394.246 434.176 442.093 425.906 486.39 425.906 C 540.144 425.906 581.494 433.586 611.024 462.527 C 626.384 477.297 637.604 496.789 637.604 530.457"/>
      <path id="path20" style="fill-opacity: 1; fill-rule: evenodd; stroke: none; fill: rgb(255, 255, 255);" d="M 179.234 546.996 C 176.281 547.586 170.964 548.18 165.062 548.18 L 58.738 548.18 C 53.417 548.18 47.511 547.586 44.558 546.996 C 46.328 548.77 49.874 552.313 53.417 557.039 L 101.265 636.191 C 107.761 646.824 110.714 653.91 111.898 656.863 C 113.078 653.91 116.031 646.824 122.527 635.602 L 171.554 555.855 C 173.917 552.313 177.464 548.77 179.234 546.996 L 179.234 546.996 Z M 357.621 433.586 L 144.976 752.555 L 25.656 752.555 L 56.96 715.344 C 57.554 714.754 58.738 714.164 59.917 713.57 C 58.738 712.98 57.554 712.391 56.96 711.801 L -128.512 433.586 L -21.008 433.586 L 7.937 481.43 C 9.117 483.793 9.707 486.156 9.707 487.34 C 10.89 487.34 13.843 486.156 16.796 486.156 L 208.773 486.156 C 211.726 486.156 214.085 486.746 215.265 487.34 C 215.265 486.156 215.265 484.383 216.449 482.613 L 246.574 433.586 L 357.621 433.586"/>
      <path id="path22" style="fill-opacity: 1; fill-rule: evenodd; stroke: none; fill: rgb(255, 255, 255);" d="M 1025.104 553.492 C 1025.104 579.484 1014.464 609.609 981.394 651.551 L 901.644 752.555 L 790.604 752.555 L 853.804 681.676 C 864.434 669.859 878.024 659.227 878.024 659.227 C 862.664 668.09 843.174 671.633 827.814 671.633 C 791.194 671.633 753.974 663.953 720.894 645.641 C 685.454 626.152 661.824 593.664 661.824 550.539 C 661.824 517.461 676.594 492.063 695.494 472.57 C 738.024 430.043 815.404 425.906 843.764 425.906 C 885.694 425.906 951.264 435.355 988.484 469.027 C 1010.334 489.109 1025.104 516.871 1025.104 553.492 Z M 932.954 550.539 C 932.954 526.324 917.004 508.012 896.924 497.969 C 880.384 489.109 860.894 486.746 843.764 486.746 C 826.634 486.746 806.544 490.293 790.004 498.563 C 769.924 508.602 754.564 528.094 754.564 549.359 C 754.564 574.762 774.054 594.844 797.094 604.883 C 811.274 611.383 828.404 613.742 841.984 613.742 C 854.984 613.742 873.884 611.973 888.654 606.063 C 915.234 594.844 932.954 573.578 932.954 550.539"/>
      <path id="path24" style="fill-opacity: 1; fill-rule: evenodd; stroke: none; fill: rgb(255, 255, 255);" d="M 1116.774 1513 C 1044.794 1513 978.684 1488.27 926.274 1446.81 C 873.894 1488.27 807.764 1513 735.774 1513 C 663.804 1513 597.644 1488.25 545.269 1446.81 C 492.898 1488.27 426.757 1513 354.769 1513 C 282.804 1513 216.636 1488.25 164.269 1446.81 C 111.863 1488.27 45.749 1513 -26.231 1513 C -195.942 1513 -333.469 1375.47 -333.469 1205.76 C -333.469 1036.06 -195.942 898.527 -26.231 898.527 C 45.749 898.527 111.894 923.262 164.269 964.715 C 216.636 923.277 282.804 898.527 354.769 898.527 C 426.757 898.527 492.898 923.254 545.269 964.715 C 597.644 923.277 663.804 898.527 735.774 898.527 C 807.764 898.527 873.894 923.254 926.274 964.715 C 978.644 923.262 1044.794 898.527 1116.774 898.527 C 1286.484 898.527 1424.014 1036.06 1424.014 1205.76 C 1424.014 1375.47 1286.484 1513 1116.774 1513 Z M 113.999 1014.91 C 74.847 986.34 25.941 968.906 -26.231 968.906 C -157.149 968.906 -263.09 1074.85 -263.09 1205.76 C -263.09 1336.68 -157.149 1442.62 -26.231 1442.62 C 25.941 1442.62 74.816 1425.18 113.999 1396.62 C 72.332 1344.18 47.535 1277.95 47.535 1205.76 C 47.535 1133.86 72.624 1067.25 113.999 1014.91 L 113.999 1014.91 Z M 164.269 1065.04 C 135.109 1104.42 117.917 1153.01 117.917 1205.76 C 117.917 1258.58 135.062 1307.08 164.269 1346.49 C 193.476 1307.08 210.621 1258.58 210.621 1205.76 C 210.621 1153.01 193.429 1104.42 164.269 1065.04 Z M 495.003 1014.91 C 455.703 985.973 407.152 968.98 354.605 968.98 C 302.078 968.98 253.832 985.988 214.539 1014.91 C 255.914 1067.25 280.999 1133.86 280.999 1205.76 C 280.999 1277.95 256.21 1344.18 214.539 1396.62 C 253.832 1425.54 302.078 1442.55 354.605 1442.55 C 407.152 1442.55 455.703 1425.55 495.003 1396.62 C 453.332 1344.18 428.542 1277.95 428.542 1205.76 C 428.542 1133.86 453.624 1067.25 495.003 1014.91 L 495.003 1014.91 Z M 545.269 1065.04 C 516.113 1104.42 498.921 1153.01 498.921 1205.76 C 498.921 1258.58 516.066 1307.08 545.269 1346.49 C 574.48 1307.08 591.624 1258.58 591.624 1205.76 C 591.624 1153.01 574.429 1104.42 545.269 1065.04 Z M 876.004 1014.91 C 836.704 985.973 788.154 968.98 735.604 968.98 C 683.074 968.98 634.834 985.988 595.534 1014.91 C 636.914 1067.25 662.004 1133.86 662.004 1205.76 C 662.004 1277.95 637.214 1344.18 595.534 1396.62 C 634.834 1425.54 683.074 1442.55 735.604 1442.55 C 788.154 1442.55 836.704 1425.55 876.004 1396.62 C 834.334 1344.18 809.544 1277.95 809.544 1205.76 C 809.544 1133.86 834.624 1067.25 876.004 1014.91 L 876.004 1014.91 Z M 926.274 1065.04 C 897.124 1104.42 879.924 1153.01 879.924 1205.76 C 879.924 1258.58 897.064 1307.08 926.274 1346.49 C 955.484 1307.08 972.624 1258.58 972.624 1205.76 C 972.624 1153.01 955.434 1104.42 926.274 1065.04 Z M 1116.774 968.906 C 1064.604 968.906 1015.694 986.34 976.544 1014.91 C 1017.914 1067.25 1043.004 1133.86 1043.004 1205.76 C 1043.004 1277.95 1018.214 1344.18 976.544 1396.62 C 1015.734 1425.18 1064.604 1442.62 1116.774 1442.62 C 1247.694 1442.62 1353.634 1336.68 1353.634 1205.76 C 1353.634 1074.85 1247.694 968.906 1116.774 968.906"/>
    </g>
  </g>
</svg>