<?xml version="1.0" encoding="utf-8"?>
<svg viewBox="0 0 500 500" xmlns="http://www.w3.org/2000/svg">
  <g id="g10" transform="matrix(0.782809, 0, 0, -0.782809, 16.812815, 478.41745)" style="">
    <g id="g12" transform="scale(0.1)">
      <path d="M 2899.99,0 C 3674.6,0 4402.84,301.66 4950.59,849.414 5498.34,1397.15 5800,2125.41 5800,2900 5800,3674.6 5498.34,4402.85 4950.59,4950.59 4402.85,5498.33 3674.6,5800 2899.99,5800 1300.93,5800 0,4499.08 0,2900 0,2125.41 301.66,1397.14 849.398,849.414 1397.15,301.66 2125.39,0 2899.99,0 v 0" style="fill-opacity: 1; fill-rule: nonzero; stroke: none;" id="path14"/>
      <path d="m 100.344,2900 c 0,747.79 291.226,1450.85 820.015,1979.64 528.781,528.81 1231.841,820.01 1979.631,820.01 747.82,0 1450.86,-291.2 1979.66,-820.01 528.77,-528.78 820,-1231.84 820,-1979.64 0,-1543.75 -1255.92,-2799.648 -2799.66,-2799.648 -747.8,0 -1450.85,291.211 -1979.631,820 C 391.57,1449.16 100.344,2152.21 100.344,2900 v 0" style="fill-opacity: 1; fill-rule: nonzero; stroke: none; fill: rgb(255, 255, 255);" id="path16"/>
      <path d="M 2899.99,5584.27 C 1417.53,5584.27 215.719,4382.47 215.719,2900 215.719,1417.53 1417.53,215.723 2899.99,215.723 c 1482.47,0 2684.27,1201.817 2684.27,2684.277 0,1482.47 -1201.79,2684.27 -2684.27,2684.27 v 0" style="fill-opacity: 1; fill-rule: nonzero; stroke: none; fill: rgb(255, 255, 255);" id="path18"/>
      <path d="m 2899.99,1185.39 c -946.94,0 -1714.62,767.68 -1714.62,1714.61 0,946.95 767.68,1714.62 1714.62,1714.62 946.95,0 1714.62,-767.68 1714.62,-1714.62 0,-946.95 -767.66,-1714.61 -1714.62,-1714.61 v 0" style="fill-opacity: 1; fill-rule: nonzero; stroke: none;" id="path20"/>
      <path d="m 1295.68,2900 h 1604.31 v 1604.33 c -886.02,0 -1604.31,-718.3 -1604.31,-1604.33 v 0" style="fill-opacity: 1; fill-rule: nonzero; stroke: none; fill: rgb(255, 255, 255);" id="path22"/>
      <path d="M 2899.99,2900 V 1295.68 c 886.03,0 1604.32,718.3 1604.32,1604.32 H 2899.99 v 0" style="fill-opacity: 1; fill-rule: nonzero; stroke: none; fill: rgb(255, 255, 255);" id="path24"/>
      <path d="m 1639.96,4535.95 c -56.83,55.24 -144.68,71.89 -227.17,20.76 15.76,40.83 9.33,82.49 0.95,105.48 -35.53,64.79 -47.92,72.91 -77.22,97.48 -94.79,79.55 -194.57,11.64 -265.92,-73.4 l -344.772,-410.86 541.962,-454.77 363.58,433.28 c 83.08,99 95.91,197.14 8.59,282.03 v 0" style="fill-opacity: 1; fill-rule: nonzero; stroke: none;" id="path26"/>
      <path d="m 2989.8,4731.19 186.12,493.33 v -493.33 h 141.46 v 706.53 h -212.54 l -193.3,-505.86 h 2.01 l -193.33,505.86 H 2507.7 v -706.53 h 141.45 v 493.33 l 186.14,-493.33 h 154.51" style="fill-opacity: 1; fill-rule: nonzero; stroke: none;" id="path28"/>
      <path d="m 4891.63,4437.25 -266.31,-377.05 412.88,196.01 109.3,-135 -649.86,-315.01 -128.29,159.7 255.61,373.74 -1.5,1.88 -418.74,-172.31 -129.55,158.71 443.25,570.15 109.33,-135 -277.58,-363.1 424.18,182.11 117.28,-144.83" style="fill-opacity: 1; fill-rule: nonzero; stroke: none;" id="path30"/>
      <path d="m 1145.93,4584.58 c 23.99,28.6 78.2,27.43 113.08,-1.83 38.33,-32.17 38.44,-77.78 12.68,-108.45 l -204.74,-243.99 -128.102,107.5 207.082,246.77 v 0" style="fill-opacity: 1; fill-rule: nonzero; stroke: none; fill: rgb(255, 255, 255);" id="path32"/>
      <path d="m 1510.2,4296.73 -215.85,-257.24 -135.36,113.58 217.61,259.34 c 24.58,29.28 79.36,37.81 116.31,6.8 41.82,-35.07 45.97,-88.32 17.29,-122.48 v 0" style="fill-opacity: 1; fill-rule: nonzero; stroke: none; fill: rgb(255, 255, 255);" id="path34"/>
    </g>
  </g>
</svg>