<?xml version="1.0" encoding="utf-8"?>
<svg viewBox="0 0 500 500" xmlns="http://www.w3.org/2000/svg">
  <path d="M 7.057 286.417 L 169.664 286.417 L 169.664 329.475 L 332.27 329.475 L 332.27 286.417 L 451.82 286.417 L 492.344 198.275 L 332.27 198.275 L 332.27 155.218 L 169.664 155.218 L 169.664 198.275 L 48.089 198.275 L 7.057 286.417 Z" style="fill: rgb(255, 255, 255);"/>
  <path d="M 339.296 226.096 L 339.296 258.679 L 369.843 258.679 L 369.843 253.078 L 348.46 253.078 L 348.46 226.096 L 339.296 226.096 Z M 378.498 226.096 L 378.498 258.679 L 409.044 258.679 L 409.044 253.078 L 387.661 253.078 L 387.661 244.933 L 406.499 244.933 L 406.499 239.333 L 387.661 239.333 L 387.661 231.697 L 409.044 231.697 L 409.044 226.096 L 378.498 226.096 Z M 416.681 226.096 L 416.681 231.697 L 430.428 231.697 L 430.428 258.679 L 439.591 258.679 L 439.591 231.697 L 453.337 231.697 L 453.337 226.096 L 416.681 226.096 Z M 154.998 226.096 L 154.998 258.679 L 185.545 258.679 L 185.545 253.078 L 164.162 253.078 L 164.162 244.933 L 183 244.933 L 183 239.333 L 164.162 239.333 L 164.162 231.697 L 185.545 231.697 L 185.545 226.096 L 154.998 226.096 Z M 104.087 226.096 L 104.087 258.679 L 113.251 258.679 L 113.251 244.933 L 131.07 244.933 L 131.07 258.679 L 140.234 258.679 L 140.234 226.096 L 131.07 226.096 L 131.07 239.333 L 113.251 239.333 L 113.251 226.096 L 104.087 226.096 Z M 192.545 226.096 L 201.201 226.096 L 213.419 251.679 L 225.383 226.096 L 234.165 226.096 L 218.891 258.679 L 207.819 258.679 L 192.545 226.096 Z M 85.531 248.708 C 83.406 252.67 79.346 255.347 74.685 255.347 C 67.826 255.347 62.265 249.545 62.265 242.388 C 62.265 235.23 67.826 229.428 74.685 229.428 C 79.564 229.428 83.786 232.364 85.817 236.633 L 95.681 236.663 C 92.74 229.529 84.451 224.388 74.685 224.388 C 62.458 224.388 52.545 232.446 52.545 242.387 C 52.545 252.328 62.458 260.387 74.685 260.387 C 84.185 260.387 92.287 255.523 95.429 248.691 L 85.531 248.708 Z M 248.675 258.679 L 239.511 258.679 L 239.511 226.095 L 265.221 226.095 C 270.058 226.095 276.421 226.986 276.421 234.751 C 276.421 238.951 272.857 242.896 270.312 243.405 C 272.475 244.551 277.058 247.606 277.058 253.206 L 277.058 258.679 L 268.276 258.679 L 268.276 253.206 C 268.53 250.279 265.475 246.46 261.657 246.46 L 248.675 246.46 L 248.675 258.679 Z M 307.859 260.388 C 295.631 260.388 285.719 252.329 285.719 242.388 C 285.719 232.447 295.632 224.387 307.859 224.387 C 320.086 224.387 329.998 232.447 329.998 242.388 C 329.998 252.329 320.086 260.388 307.859 260.388 Z" style=""/>
  <path d="M 248.675 240.861 L 261.53 240.861 C 264.204 240.861 266.876 239.461 266.876 235.769 C 266.876 232.715 263.058 231.697 261.276 231.697 L 248.675 231.697 L 248.675 240.861 Z M 320.278 242.388 C 320.278 235.23 314.718 229.427 307.859 229.427 C 301 229.427 295.438 235.229 295.438 242.388 C 295.438 249.545 300.999 255.347 307.859 255.347 C 314.717 255.347 320.278 249.545 320.278 242.388 Z" style="fill: rgb(255, 255, 255);"/>
</svg>