<?xml version="1.0" encoding="utf-8"?>
<svg viewBox="0 0 500 500" xmlns="http://www.w3.org/2000/svg">
  <g id="g10" transform="matrix(1.942981, 0, 0, -1.942981, 155.077179, 368.304138)" style="">
    <g id="g12" transform="scale(0.1)">
      <path d="M -487.52 1649.739 L 1439.92 1649.739 L 1439.92 -277.701 L -487.52 -277.701 L -487.52 1649.739" style="fill-opacity: 1; fill-rule: evenodd; stroke: none; fill: rgba(255, 255, 255, 0);" id="path14"/>
      <path d="M -459.594 487.713 L -459.594 526.756 L -437.903 526.756 C -427.055 526.756 -405.364 528.924 -405.364 554.955 L -405.364 789.219 C -405.364 803.319 -406.45 836.939 -433.563 836.939 L -458.508 836.939 L -430.309 886.829 L 1238.18 886.829 L 1238.18 836.939 L -296.911 836.939 C -311.008 836.939 -329.446 833.689 -329.446 805.489 L -329.446 731.739 C -326.192 723.059 -313.176 719.807 -306.668 719.807 C -300.161 719.807 -277.387 720.893 -277.387 756.679 L -244.848 756.679 L -244.848 636.295 L -277.387 636.295 C -277.387 647.143 -289.372 665.315 -305.582 666.662 C -318.602 667.748 -329.446 663.408 -329.446 646.061 L -329.446 554.955 C -329.446 545.194 -317.516 526.756 -289.317 526.756 L -269.793 526.756 L -269.793 487.713 L -459.594 487.713" style="fill-opacity: 1; fill-rule: evenodd; stroke: none; fill: rgb(255, 255, 255);" id="path16"/>
      <path d="M 503.281 780.539 C 503.281 771.869 514.13 763.189 520.63 761.019 C 528.23 766.439 568.36 789.219 599.8 789.219 C 631.26 789.219 647.53 772.949 647.53 748.009 L 647.53 628.705 L 571.61 628.705 L 571.61 720.893 C 571.61 732.819 568.36 741.499 557.51 742.589 C 546.66 743.669 518.46 720.893 510.875 710.045 L 510.875 545.194 C 510.875 530.01 526.05 519.162 539.07 519.162 L 539.07 487.713 L 406.757 487.713 L 406.757 520.248 C 419.769 520.248 433.867 524.584 434.957 544.108 L 434.957 727.399 C 434.957 732.819 426.281 748.009 406.757 748.009 L 406.757 780.539 L 503.281 780.539" style="fill-opacity: 1; fill-rule: evenodd; stroke: none; fill: rgb(255, 255, 255);" id="path18"/>
      <path d="M 1411.27 780.539 L 1278.96 780.539 L 1278.96 748.009 C 1298.48 748.009 1307.15 732.819 1307.15 727.399 L 1307.15 544.108 C 1306.07 524.584 1291.97 520.248 1278.96 520.248 L 1278.96 487.713 L 1411.27 487.713 L 1411.27 519.162 C 1398.26 519.162 1383.07 530.01 1383.07 545.194 L 1383.07 725.229 C 1383.07 738.249 1397.18 748.009 1411.27 748.009 L 1411.27 780.539" style="fill-opacity: 1; fill-rule: evenodd; stroke: none; fill: rgb(255, 255, 255);" id="path20"/>
      <path d="M 210.449 780.539 C 210.449 771.869 221.293 763.189 227.804 761.019 C 235.394 766.439 275.523 789.219 306.976 789.219 C 338.429 789.219 354.695 772.949 354.695 748.009 L 354.695 628.705 L 278.777 628.705 L 278.777 720.893 C 278.777 732.819 275.523 741.499 264.679 742.589 C 253.832 743.669 225.632 720.893 218.043 710.045 L 218.043 545.194 C 218.043 530.01 233.226 519.162 246.238 519.162 L 246.238 487.713 L 113.925 487.713 L 113.925 520.248 C 126.941 520.248 141.039 524.584 142.125 544.108 L 142.125 727.399 C 142.125 732.819 133.445 748.009 113.925 748.009 L 113.925 780.539 L 210.449 780.539" style="fill-opacity: 1; fill-rule: evenodd; stroke: none; fill: rgb(255, 255, 255);" id="path22"/>
      <path d="M 1090.24 780.539 C 1090.24 771.869 1101.09 763.189 1107.6 761.019 C 1115.19 766.439 1155.32 789.219 1186.77 789.219 C 1218.22 789.219 1234.49 772.949 1234.49 748.009 L 1234.49 628.705 L 1158.57 628.705 L 1158.57 720.893 C 1158.57 732.819 1155.32 741.499 1144.47 742.589 C 1133.62 743.669 1105.43 720.893 1097.84 710.045 L 1097.84 545.194 C 1097.84 530.01 1113.02 519.162 1126.03 519.162 L 1126.03 487.713 L 993.72 487.713 L 993.72 520.248 C 1006.73 520.248 1020.83 524.584 1021.91 544.108 L 1021.91 727.399 C 1021.91 732.819 1013.24 748.009 993.72 748.009 L 993.72 780.539 L 1090.24 780.539" style="fill-opacity: 1; fill-rule: evenodd; stroke: none; fill: rgb(255, 255, 255);" id="path24"/>
      <path d="M 56.66 578.815 L -19.262 578.815 L -19.262 549.529 C -19.262 537.604 -21.43 512.658 -57.219 512.658 C -93.012 512.658 -103.856 536.518 -103.856 553.869 L -103.856 615.694 C -103.856 621.115 -99.52 628.705 -91.926 628.705 L 56.66 628.705 L 56.66 707.877 C 56.66 743.669 49.066 754.509 33.882 769.689 C 18.699 784.879 -34.446 789.219 -58.305 789.219 C -119.043 789.219 -138.563 780.539 -155.915 766.439 C -173.27 752.349 -179.778 723.059 -179.778 701.369 L -179.778 578.815 C -179.778 546.279 -173.27 523.502 -152.665 502.897 C -132.055 482.291 -69.153 482.291 -56.133 482.291 C -43.122 482.291 0.261 481.205 31.714 503.983 C 63.168 526.756 56.66 578.815 56.66 578.815 Z M -103.856 713.299 C -103.856 730.659 -98.434 756.679 -60.473 756.679 C -22.512 756.679 -19.262 728.479 -19.262 713.299 L -19.262 674.256 C -19.262 667.748 -24.684 661.24 -32.278 661.24 L -90.844 661.24 C -97.352 661.24 -103.856 666.662 -103.856 673.174 L -103.856 713.299" style="fill-opacity: 1; fill-rule: evenodd; stroke: none; fill: rgb(255, 255, 255);" id="path26"/>
      <path d="M 926.48 545.194 L 926.48 707.877 C 926.48 732.819 925.39 758.849 899.36 777.289 C 873.33 795.729 831.03 794.639 814.77 794.639 C 798.5 794.639 744.27 794.639 719.32 766.439 C 694.38 738.249 698.72 711.131 698.72 700.287 L 769.76 700.287 C 769.76 700.287 774.64 737.159 784.4 746.919 C 794.22 756.749 820.19 767.529 840.25 750.179 C 847.65 743.779 850.55 735.529 850.55 726.319 L 850.55 679.682 C 850.55 675.342 846.22 668.834 840.8 668.834 C 840.8 668.834 742.1 666.662 724.75 653.651 C 707.39 640.635 692.21 631.959 692.21 584.237 C 692.21 536.518 704.14 518.076 718.24 508.319 C 732.34 498.557 738.84 487.713 802.84 487.713 L 954.68 487.713 L 954.68 519.162 C 941.66 519.162 926.48 530.01 926.48 545.194 Z M 850.55 526.756 C 850.55 524.045 846.22 520.248 842.96 520.248 L 805.55 520.248 C 778.97 520.248 771.38 543.026 771.38 557.123 L 771.38 598.881 C 771.38 639.549 813.68 638.467 830.49 638.467 C 847.3 638.467 850.55 624.369 850.55 615.147 L 850.55 526.756" style="fill-opacity: 1; fill-rule: evenodd; stroke: none; fill: rgb(255, 255, 255);" id="path28"/>
      <path d="M 1340.14 837.479 C 1378.1 837.479 1408.87 849.019 1408.87 863.259 C 1408.87 877.489 1378.1 889.029 1340.14 889.029 C 1302.17 889.029 1271.39 877.489 1271.39 863.259 C 1271.39 849.019 1302.17 837.479 1340.14 837.479" style="fill-opacity: 1; fill-rule: evenodd; stroke: none; fill: rgb(255, 255, 255);" id="path30"/>
    </g>
  </g>
</svg>