<?xml version="1.0" encoding="utf-8"?>
<svg viewBox="0 0 500 500" xmlns="http://www.w3.org/2000/svg">
  <g id="Layer_3" transform="matrix(0.782267, 0, 0, 0.782267, 32.302235, 8.91884)" style=""/>
  <g id="Layer_4" transform="matrix(0.782267, 0, 0, 0.782267, 32.302235, 8.91884)" style=""/>
  <g id="Layer_5" transform="matrix(0.782267, 0, 0, 0.782267, 32.302235, 8.91884)" style="">
    <g>
      <path class="st0" d="M418.3,188.8c0,10.1-35.4,29.4-65.5,29.4c-46.8,0-95.5-22.4-117.9-27.5c-24.4-5.7-46.5-10.4-63.9-10.4 c-61,0-88.2,26.2-87,50.3c0.6,9.8,8.5,16.1,20.2,13.9c12.6-2.2,30.4-14.2,34.8-24.7c0.9-2.2,3.5-2.5,4.4-1.9 c1.9,1.6,1.3,3.8,1.3,3.8c-1.6,12.3-20.6,46.5-53.4,46.5c-18.3,0-30.7-17.1-30.4-33.8c0.3-31.3,32.3-62.9,111-62.9 c14.9,0,31.6,1.3,50,4.4c21.2,3.8,74,12.6,117,13.3c15.8,0,36,0.6,52.5-1.9c17.4-2.8,13.6-3.5,20.6-3.5 C418.3,183.7,418.3,186.2,418.3,188.8L418.3,188.8L418.3,188.8L418.3,188.8z" style="clip-rule: evenodd; fill-rule: evenodd; fill: rgb(255, 255, 255);"/>
      <path class="st0" d="M539.1,334.5c-1.3,0-3.5,2.8-4.7,4.4c-6,6.3-31,32.3-44.6,32.9c2.8,0-4.7,1.6-5.4-4.4 c-0.3-3.8,2.8-8.5,4.1-11.1l67.7-119.8h-25l-40.8,68.9c-3.2-6.3-7.9-21.2-26.6-21.5c-31-0.3-43,20.9-64.5,41.1 c-6.3,5.7-13.9,13.3-31.3,13.3c-10.1,0-18-8.2-16.1-18.7c1.3-8.2,4.1-12.3,10.1-14.5c2.8,8.2,8.2,12.6,17.4,12.6 c10.4-0.3,16.4-9.8,16.8-18c0-7-4.4-15.8-17.1-16.4c-11.7-0.6-20.6,4.7-33.2,19.3c0,0,3.2-21.5-20.6-20.9c-2.5,0-5.1,0-7.6,1.3 c-13,4.1-29.7,25-43,41.1c0.6-3.2,0.6-6.3,0.6-9.5c0-9.2-3.5-21.2-9.8-27.5c-1.3-1.3-2.5-1.3-3.8-1.3c-4.1,0-7.6,3.5-7.6,8.9 c3.2,3.2,7.3,11.1,7.3,18.7c0,7.6-2.2,21.5-5.4,26.9c-12,20.6-27.2,33.8-45.5,31c-9.8-2.2-16.4-11.7-14.5-25.9 c0.9-8.2,6-19.6,10.8-26.6c7.9-10.8,20.9-21.8,39.8-24.7c0,0,0.9-3.8-1.6-5.7c-0.9-1.6-2.2-3.5-6.6-3.5 c-26.9,0.9-43.3,20.2-52.8,39.2c-3.5,6.6-8.5,16.1-11.4,22.1c0,0-2.5,7-14.2,15.8c-6,4.7-7.9,6.3-8.9,6c0.3,2.2,1.9,5.4,4.7,7.9 c0.9,0.6,4.1-1.3,5.4-1.9c14.9-8.5,16.4-12.6,16.4-12.6c3.2,17.7,18.3,26.9,35.1,26.9c23.1,0,44.3-20.9,56.6-39.2 c13-19.3,30.7-38.3,30.7-38.3c7-6.6,14.2-11.1,18.7-11.1c4.1,0.3,7,3.8,6,7.6c-1.6,6.6-3.8,13-8.2,20.9l-34.5,58.5h26.9 c15.5-29.1,16.1-30,31.3-57.9c4.1,15.5,12.3,21.5,25.6,21.8c11.4,0.3,19.3-0.3,27.8-4.7c-2.2,8.9-0.9,17.7,1.9,23.7 c3.2,7.3,9.5,16.4,25,16.8c18.7,0,37-8.2,42.4-13c1.6,9.2,6,13.9,17.7,13.9c23.7-0.6,44.6-25,57.2-40.8c2.2-2.8,5.1-7.6,5.1-8.9 C542.9,335.8,540.4,334.5,539.1,334.5z M476.8,327c0,0-10.7,18-21.8,29.1c-19.6,19.9-32.3,13.3-35.1,11.1 c-2.8-2.2-5.1-10.1-3.8-18c0.9-7.9,7-21.2,12.6-28.1c11.4-13.9,25.3-23.4,36.4-22.1c13.6,1.6,14.9,14.9,8.2,27.2L476.8,327z" style="clip-rule: evenodd; fill-rule: evenodd; fill: rgb(255, 255, 255);"/>
      <path class="st0" d="M252,238.1c0-5.1-3.8-9.8-9.5-10.8c-10.1-1.6-18,6.6-19,20.2c0,3.5,1.3,7.6,1.3,7.6s-22.1,3.8-41.1,4.7 c23.4-39.5,44.9-53.4,51.2-59.1c1.3-0.9,4.4-4.4,4.7-5.1c1.3-3.2-1.6-5.1-2.8-5.1c-7.6-0.3-44.3,26.9-72.7,70.5 c-7.3,0.9-37.6,3.5-47.7,14.9c-1,1.3-1.9,3.5-1.9,4.1c0.6,2.5,2.5,3.8,5.4,1.6c6.3-7.3,31.9-10.1,37.9-10.4 c-37.3,52.5-71.8,87-102.4,87c-3.2,0-6.3,0.3-9.8-0.6c-12.3-2.8-19.6-15.8-19.6-27.5c0-15.5,14.9-32.3,23.4-35.4 c2.8-1.3,4.1-2.8,4.1-4.1c0-1.9-1.3-3.2-4.7-3.2c-29.4,7.3-45.2,31.3-44.9,50.9c0.6,32.3,25,50.3,52.5,50.3 c38.6,0,58.2-16.8,121.1-118.6c25-2.5,37.3-4.1,50-6.3c0,0,3.8,9.2,13.3,9.2c1.6,0.3,1.3-1.3,2.2-4.7c-4.1-0.3-8.9-3.2-8.9-6.6 c3.8-1.9,7-4.1,9.8-6.3C247.9,251.4,252,243.5,252,238.1z M232.4,254.5c-0.9-3.8-1.6-7.3,0-12.3c1.3-4.7,4.1-7,8.9-7.9 c2.2-0.3,3.2,1.9,3.5,3.8c0.6,3.8-2.5,9.5-4.4,11.4C235.6,254.9,232.4,254.5,232.4,254.5z" style="clip-rule: evenodd; fill-rule: evenodd; fill: rgb(255, 255, 255);"/>
    </g>
  </g>
</svg>