<?xml version="1.0" encoding="utf-8"?>
<svg viewBox="0 0 500 500" xmlns="http://www.w3.org/2000/svg">
  <g id="g10" transform="matrix(8.48803, 0, 0, -8.48803, 24.041227, 412.350586)" style="">
    <g id="g12" transform="scale(0.1)">
      <path d="m 4.71094,327.059 c 0,0 -3.777346,-47.207 -0.15625,-100.301 C 12.1875,114.949 31.3984,59.6094 54.7305,43.0859 103.199,8.75 193.773,13.1445 264.828,13.1445 c 0,-4.16012 0,-5.37106 0,-7.53903 0,-1.67969 0,-3.39844 0,-5.214845 C 156.555,4.08203 75.3008,0.195313 38.7109,43.9453 16.5781,70.4297 3.58984,158.574 1.10547,228.445 c -2.046876,57.61 2.37109,98.907 2.37109,98.907 0,0 0.17578,-0.039 0.66016,-0.157 0.17578,-0.039 0.35937,-0.086 0.57422,-0.136 v 0" style="fill:#231f20;fill-opacity:1;fill-rule:evenodd;stroke:none" id="path14"/>
      <path d="m 57.6172,375.301 c -1.6641,-1.59 -3.2266,-3.34 -4.6563,-5.254 C 32.4297,342.684 34.8203,301.563 34.4492,269.172 33.9688,227.82 35.8789,185.828 41.5391,144.836 44.6094,122.605 46.9141,94.6367 57.6758,73.4961 L 47.3164,69.5117 c 0,0 -26.2422,50.9573 -26.2422,198.3593 0,105.586 36.543,107.43 36.543,107.43 v 0" style="fill:#231f20;fill-opacity:1;fill-rule:evenodd;stroke:none" id="path16"/>
      <path d="m 57.0664,74.7461 c -0.9375,1.9922 -5.1484,15.125 -7.3398,24.2383 -0.5118,2.1676 -4.4532,23.6606 -5.1563,27.6636 -2.4765,11.516 -5.5234,30.95 -7.6211,53.118 -4.1797,44.152 -6.8164,93.992 -6.8164,109.754 -0.5586,-2.157 -0.8945,-26.504 -1.1406,-29.762 -0.1484,-2.024 -0.2422,-15.09 -0.2422,-17.57 0,-63.254 13.6211,-160.8794 28.3164,-167.4419 v 0" style="fill:#231f20;fill-opacity:1;fill-rule:evenodd;stroke:none" id="path18"/>
      <path d="M 42.1328,373.66 C 23.2969,347.012 21.0742,313.328 21.0742,259.559 c 0,-28.993 3.9453,-122.899 19.3203,-172.1957 0.6172,-1.9922 5.7266,-11.2695 7.4805,-9.5117 1.7539,1.7382 0.6563,5.2539 -0.5469,8.0859 -1.207,2.8516 -17.8984,77.2145 -17.8984,173.3865 0,8.645 -0.7422,64.356 5.5,80.176 7.2031,18.234 12.7344,23.906 20.7773,33.828 10.918,13.488 42.6094,20.762 42.6094,20.762 0,0 1.5234,0.273 2.0426,0.117 1.395,-0.398 1.907,-1.199 1.907,-1.199 0,0 3.062,4.785 13.125,8.515 11.683,4.344 22.347,5.165 22.347,5.165 l 12.125,-7.079 c 0,0 0.25,0.243 0.559,0.391 2.894,1.309 50.73,6.387 114.406,5.594 v 8.449 c -120.582,0 -196.5389,-3.371 -222.6952,-40.383 v 0" style="fill:#231f20;fill-opacity:1;fill-rule:evenodd;stroke:none" id="path20"/>
      <path d="m 29.4531,279.375 c 0,0 -0.875,25.691 0.9922,44.871 0.6445,6.602 1.5899,12.422 3.0235,16.145 3.7187,9.726 7.9023,16.894 11.6679,22.07 1.9805,2.734 3.8516,4.902 5.4727,6.582 3.3633,3.504 5.6445,4.91 5.6445,4.91 0,0 -13.9883,-14.558 -19.3008,-35.644 -0.3125,-1.231 -0.5976,-2.481 -0.8359,-3.77 -2.5469,-13.516 -5.6211,-39.891 -6.332,-51.211 -0.1954,-1.484 -0.1993,-3.027 -0.2774,-3.555 -0.0312,-0.261 -0.2265,-0.398 -0.0547,-0.398 v 0" style="fill:#231f20;fill-opacity:1;fill-rule:evenodd;stroke:none" id="path22"/>
      <path d="M 264.828,17.3047 C 133.891,17.3047 69.625,15.6836 44.6523,75.3516 26.1289,119.629 21.0742,227.996 21.0742,259.559 c 0,138.242 18.9492,154.484 243.7538,154.484" style="fill:#231f20;fill-opacity:1;fill-rule:nonzero;stroke:none" id="path24"/>
      <path d="M 264.828,17.3047 C 133.891,17.3047 69.625,15.6836 44.6523,75.3516 26.1289,119.629 21.0742,227.996 21.0742,259.559 c 0,138.242 18.9492,154.484 243.7538,154.484" style="fill:none;stroke:#8f9090;stroke-width:2.18888;stroke-linecap:butt;stroke-linejoin:miter;stroke-miterlimit:22.9256;stroke-dasharray:none;stroke-opacity:1" id="path26"/>
      <path d="m 524.945,327.059 c 0,0 -6.218,60.226 -52.754,76.183 -62.636,21.465 -136.308,19.11 -207.363,19.11 0,6.386 0,7.16 0,7.511 22.813,0 157.981,-0.324 211.836,-22.91 48.008,-20.137 49.512,-79.601 49.512,-79.601 0,0 -0.086,-0.016 -1.231,-0.293 v 0" style="fill:#231f20;fill-opacity:1;fill-rule:evenodd;stroke:none" id="path28"/>
      <path d="m 524.945,327.059 c 0,0 3.782,-47.207 0.168,-100.301 C 517.477,114.949 498.266,59.6094 474.926,43.0859 426.461,8.75 335.883,13.1445 264.828,13.1445 c 0,-4.16012 0,-5.37106 0,-7.53903 0,-1.67969 0,-3.39844 0,-5.214845 108.281,3.691405 189.531,-0.195312 226.125,43.554675 22.117,26.4844 35.125,114.6287 37.606,184.4997 2.05,57.61 -2.383,98.907 -2.383,98.907 0,0 -0.156,-0.039 -0.645,-0.157 -0.183,-0.039 -0.359,-0.086 -0.586,-0.136 v 0" style="fill:#231f20;fill-opacity:1;fill-rule:evenodd;stroke:none" id="path30"/>
      <path d="m 508.59,267.871 c 0,-147.402 -26.242,-198.3593 -26.242,-198.3593 l -10.371,3.9844 c 10.753,21.1406 13.078,49.1089 16.144,71.3399 5.664,40.992 7.578,82.984 7.09,124.336 -0.371,32.398 2.012,73.512 -18.516,100.875 -1.437,1.914 -2.988,3.664 -4.66,5.254 0,0 36.555,-1.844 36.555,-107.43 v 0" style="fill:#231f20;fill-opacity:1;fill-rule:evenodd;stroke:none" id="path32"/>
      <path d="m 487.523,373.66 c 18.84,-26.648 21.067,-60.332 21.067,-114.101 0,-28.993 -3.957,-122.899 -19.328,-172.1957 -0.625,-1.9922 -5.723,-11.2695 -7.481,-9.5117 -1.746,1.7382 -0.652,5.2539 0.547,8.0859 1.211,2.8516 17.91,77.2145 17.91,173.3865 0,8.645 0.723,64.356 -5.515,80.176 -7.2,18.234 -12.735,23.906 -20.782,33.828 -10.91,13.488 -42.597,20.762 -42.597,20.762 0,0 -1.524,0.273 -2.051,0.117 -1.387,-0.398 -1.895,-1.199 -1.895,-1.199 0,0 -3.078,4.785 -13.125,8.515 -11.691,4.344 -22.355,5.165 -22.355,5.165 l -12.129,-7.079 c 0,0 -0.242,0.243 -0.555,0.391 -2.89,1.309 -50.722,6.387 -114.406,5.594 v 8.449 c 120.578,0 196.543,-3.371 222.695,-40.383 v 0" style="fill:#231f20;fill-opacity:1;fill-rule:evenodd;stroke:none" id="path34"/>
      <path d="m 500.219,279.375 c 0,0 0.871,25.691 -0.996,44.871 -0.645,6.602 -1.602,12.422 -3.028,16.145 -3.718,9.726 -7.898,16.894 -11.66,22.07 -2,2.734 -3.867,4.902 -5.476,6.582 -3.371,3.504 -5.645,4.91 -5.645,4.91 0,0 13.984,-14.558 19.305,-35.644 0.304,-1.231 0.578,-2.481 0.82,-3.77 2.559,-13.516 5.625,-39.891 6.348,-51.211 0.187,-1.484 0.195,-3.027 0.273,-3.555 0.031,-0.261 0.227,-0.398 0.059,-0.398 v 0" style="fill:#231f20;fill-opacity:1;fill-rule:evenodd;stroke:none" id="path36"/>
      <path d="m 264.828,17.3047 c 130.949,0 195.207,-1.6211 220.176,58.0469 18.527,44.2774 23.586,152.6444 23.586,184.2074 0,138.242 -18.945,154.484 -243.762,154.484" style="fill:#231f20;fill-opacity:1;fill-rule:nonzero;stroke:none" id="path38"/>
      <path d="m 264.828,17.3047 c 130.949,0 195.207,-1.6211 220.176,58.0469 18.527,44.2774 23.586,152.6444 23.586,184.2074 0,138.242 -18.945,154.484 -243.762,154.484" style="fill:none;stroke:#8f9090;stroke-width:2.18888;stroke-linecap:butt;stroke-linejoin:miter;stroke-miterlimit:22.9256;stroke-dasharray:none;stroke-opacity:1" id="path40"/>
      <path d="m 264.828,414.043 c -224.8046,0 -243.7538,-16.242 -243.7538,-154.484 0,-31.563 5.0547,-139.93 23.5781,-184.2074 24.9727,-59.668 89.2387,-58.0469 220.1757,-58.0469 130.949,0 195.207,-1.6211 220.176,58.0469 18.527,44.2774 23.586,152.6444 23.586,184.2074 0,138.242 -18.945,154.484 -243.762,154.484" style="fill-opacity: 1; fill-rule: nonzero; stroke: none;" id="path42"/>
      <path d="m 264.828,414.043 c -224.8046,0 -243.7538,-16.242 -243.7538,-154.484 0,-31.563 5.0547,-139.93 23.5781,-184.2074 24.9727,-59.668 89.2387,-58.0469 220.1757,-58.0469 130.949,0 195.207,-1.6211 220.176,58.0469 18.527,44.2774 23.586,152.6444 23.586,184.2074 0,138.242 -18.945,154.484 -243.762,154.484 z" style="fill:none;stroke:#231f20;stroke-width:1.09473;stroke-linecap:butt;stroke-linejoin:miter;stroke-miterlimit:22.9256;stroke-dasharray:none;stroke-opacity:1" id="path44"/>
      <path d="m 488.746,367.156 c -0.332,0.598 -15.683,17.93 -32.219,23.438 -5.496,1.828 -23.64,6.594 -29.023,5.402 -1.524,-0.344 -1.336,-0.988 -1.336,-1.543 -4.504,3.32 -6.797,4.942 -8.195,5.516 -5.184,2.14 -6.25,3.008 -23.516,6.437 0.754,0 3.234,-0.215 4.27,-0.265 10.242,-0.496 33.777,-3.621 58.925,-12.891 19.18,-7.07 31.309,-25.086 31.641,-25.691 -0.078,-0.051 -0.168,-0.118 -0.246,-0.188 -0.106,-0.066 -0.215,-0.144 -0.301,-0.215 v 0" style="fill:#231f20;fill-opacity:1;fill-rule:evenodd;stroke:none" id="path46"/>
      <path d="m 528.715,304.16 c -1.817,30.594 -6.348,63.985 -29.024,86.621 -20.683,20.645 -50.527,26.434 -78.308,30.145 -52.258,6.972 -103.781,8.879 -156.555,8.918 -52.773,-0.039 -104.297,-1.946 -156.558,-8.918 -27.7661,-3.711 -57.6255,-9.5 -78.3052,-30.145 C 7.28906,368.145 2.76953,334.754 0.941406,304.16 -1.17578,268.691 0.644531,233.32 2.83203,197.922 5.03125,163.074 8.96094,127.898 17.4648,93.9727 21.4102,78.2422 26.7461,62.4414 35.8828,48.9063 44.6563,35.918 57.3047,26.7188 71.4648,20.2539 101.555,6.50391 136.273,5.33203 168.766,3.32031 200.637,1.34766 232.727,0.15625 264.828,0 c 32.11,0.15625 64.192,1.34766 96.067,3.32031 32.488,2.01172 67.207,3.1836 97.293,16.93359 14.171,6.4649 26.808,15.6641 35.585,28.6524 9.133,13.5351 14.473,29.3359 18.418,45.0664 8.508,33.9253 12.434,69.1013 14.629,103.9493 2.188,35.398 4.016,70.769 1.895,106.238 z M 68.4766,57.6563 C 48.125,79.5703 45.4414,116.57 41.5391,144.836 c -5.6602,40.992 -7.5703,82.984 -7.0899,124.336 0.3711,32.398 -2.0195,73.512 18.5117,100.875 10.8438,14.473 28.9024,19.277 45.3555,24.043 8.6956,-0.36 5.2466,-14.004 5.7306,-19.539 0.457,-32.805 2.324,-65.645 3.746,-98.43 4.809,-78.125 10.43,-155.984 20.598,-233.6015 2.629,-24.8437 -52.7621,7.4024 -59.9144,15.1368 z M 336.664,27.207 c -3.242,-0.5664 -14.141,-0.5468 -26.172,-0.8398 -15.242,-0.3711 -30.449,-0.4102 -45.664,-0.4102 -15.211,0 -30.418,0.0391 -45.656,0.4102 -12.039,0.293 -22.942,0.2734 -26.18,0.8398 -3.246,0.5664 -6.586,0.7618 -5.613,4.375 0.98,3.6328 15.601,50.7618 15.601,50.7618 9.594,31.3282 10.262,33.3862 34.895,38.2112 8.184,1.613 17.52,2.648 26.953,2.707 9.434,-0.059 18.77,-1.094 26.953,-2.707 24.629,-4.825 25.305,-6.883 34.895,-38.2112 0,0 14.629,-47.129 15.594,-50.7618 0.988,-3.6132 -2.352,-3.8086 -5.606,-4.375 z m 42.93,367.559 c -11.258,-40.977 -24.266,-95.313 -35.848,-136.473 -9.269,-32.934 -19.902,-75.355 -60.098,-79.563 -6.007,-0.625 -12.375,-1.14 -18.82,-1.242 -6.445,0.102 -12.812,0.617 -18.812,1.242 -40.203,4.208 -50.836,46.629 -60.102,79.563 -11.582,41.16 -24.586,95.496 -35.851,136.473 -1.938,7.07 0.976,5.457 15.523,7.422 26.152,3.515 65.16,4.062 99.242,3.73 34.074,0.332 73.086,-0.215 99.238,-3.73 14.551,-1.965 17.473,-0.352 15.528,-7.422 z m 108.527,-249.93 c -3.906,-28.266 -6.594,-65.2657 -26.945,-87.1797 -7.149,-7.7344 -62.539,-39.9805 -59.91,-15.1368 10.164,77.6175 15.781,155.4765 20.605,233.6015 1.414,32.785 3.289,65.625 3.738,98.43 0.481,5.535 -2.968,19.179 5.735,19.539 16.445,-4.766 34.511,-9.57 45.351,-24.043 20.528,-27.363 18.145,-68.484 18.516,-100.875 0.488,-41.352 -1.426,-83.344 -7.09,-124.336 v 0" style="fill-opacity: 1; fill-rule: evenodd; stroke: none; fill: rgb(255, 255, 255);" id="path48"/>
      <path d="m 171.813,23.1641 c 0.136,0.5859 0.011,0.0195 0.14,0.5859 3.762,16.2305 5.699,24.9609 9.746,39.5117 4.414,15.8399 8.004,26.1133 13.66,41.0043 3.571,9.367 11.653,21.836 23.704,26.261 11.535,4.207 20.859,6.602 45.765,6.602 0,-1.992 0,-2.785 0,-4.121 0,-3.582 0,-6.399 0,-6.922 0,-1.047 0,0.269 0,-3.43 -19.965,0 -32.055,-1.269 -41.754,-7.527 -5.082,-3.285 -11.34,-9.887 -14.988,-18.9571 -5.481,-13.6328 -8.215,-22.9688 -12.168,-35.7617 -4.23,-13.6524 -6.156,-20.5274 -8.32,-28.4571 -0.082,-0.2929 -0.325,-1.1523 -0.328,-1.875 -0.004,-0.3711 0.05,-0.7422 0.246,-0.9179 -4.844,-2.2071 -6.184,-2.6758 -6.926,-2.9493 -0.863,-0.2929 -2.899,-1.0742 -4.977,-1.8359 -1.109,-0.3906 -2.074,-0.6641 -3.8,-1.2109 v 0" style="fill-opacity: 1; fill-rule: evenodd; stroke: none; fill: rgb(255, 255, 255);" id="path50"/>
      <path d="m 136.625,405.664 c 6.289,-31.262 22.254,-104.094 25.508,-118.859 3.273,-14.762 20.664,-80.211 30.469,-96.746 5.117,-8.625 10.765,-14.746 17.511,-19.075 12.899,-8.25 29.809,-9.921 54.715,-9.921 0,2.91 0,5.839 0,8.75 0,2.726 0,5.07 0,8.761 -19.961,0 -32.055,0.723 -41.754,6.981 -5.082,3.285 -9.504,8.078 -14.058,15.09 -14.297,21.992 -25.739,67.168 -31.875,89.484 -4.004,14.578 -23.114,89.988 -27.606,107.762 -3.398,2.039 -5.031,2.722 -6.449,3.886 -1.27,1.036 -2.551,1.641 -6.461,3.887 v 0" style="fill-opacity: 1; fill-rule: evenodd; stroke: none; fill: rgb(255, 255, 255);" id="path52"/>
      <path d="m 264.828,160.301 c -59.91,0 -75.519,10.879 -99.168,112.082 -23.644,101.219 -28.847,133.379 -28.847,133.379 0,0 -10.407,-1.418 -20.805,-5.207 -10.406,-3.778 -13.098,-8.524 -13.098,-8.524 0,0 -2.156,-71.504 10.563,-201.902 C 126.191,59.7266 128.813,37.5 128.813,37.5 c 0,0 20.39,-12.0312 30.23,-13.3984 8.723,-1.211 12.77,-0.9571 12.77,-0.9571 0,0 5.878,28.6524 14.71,55.6055 12.997,39.637 16.02,58.379 78.305,58.379 v 23.172 0" style="fill-opacity: 1; fill-rule: evenodd; stroke: none; fill: rgb(255, 255, 255);" id="path54"/>
      <path d="m 264.828,137.129 c -37.68,0 -54.894,-7.754 -64.086,-22.258 -5.844,-9.219 -9.414,-21.4726 -14.465,-36.8827 -4.922,-15.0391 -5.242,-18.7695 -7.586,-26.25 -2.347,-7.4414 -6.878,-28.5742 -6.878,-28.5742 0,0 -13.852,0.1367 -20.657,2.3437 -11.953,3.8867 -16.41,5.7422 -23.535,9.6094 0,0 1.258,1.3476 1.109,2.8906 -1.109,11.7969 -10.671,105.5782 -11.714,115.8592 -1.938,19.442 -0.664,6.719 -3.543,36.27 -4.055,41.59 -6.598,77.207 -8.18,106.406 -3.383,62.344 -2.379,95.496 -2.379,95.496 0,0 2.356,4.152 11.172,7.785 1.555,0.633 14.449,6.211 14.746,3.426 0.246,-2.305 1.016,-8.836 3.121,-21.316 3.238,-19.211 9.633,-52.5 22.102,-106.094 0.265,-1.145 0.539,-2.285 0.8,-3.438 11.829,-51.183 12.395,-79.277 25.922,-98.144 5.469,-7.637 10.653,-13.145 16.567,-17.278 13.965,-9.746 31.996,-16.003 67.484,-19.851 v 0" style="fill-opacity: 1; fill-rule: evenodd; stroke: none; fill: rgb(255, 255, 255);" id="path56"/>
      <path d="m 4.71094,327.059 c 0,0 6.23046,60.226 52.75786,76.183 62.6292,21.465 136.3042,19.11 207.3592,19.11 0,6.386 0,7.16 0,7.511 -22.801,0 -157.969,-0.324 -211.8319,-22.91 C 4.99609,386.816 3.47656,327.352 3.47656,327.352 c 0,0 0.09766,-0.016 1.23438,-0.293 v 0" style="fill-opacity: 1; fill-rule: evenodd; stroke: none; fill: rgb(255, 255, 255);" id="path58"/>
      <path d="m 172.973,19.4531 h 91.8672 v 9.19922 H 172.973 Z" style="fill-opacity: 1; fill-rule: nonzero; stroke: none; fill: rgb(255, 255, 255);" id="path60"/>
      <path d="m 172.973,22.9492 c 2.554,0.8789 6.242,1.9141 8.511,2.7735 2.137,0.8007 4.313,1.8945 6.551,2.9296 1.113,-0.7812 2.461,-0.8789 3.774,-1.0156 3.488,-0.3515 12.007,-0.8984 30.941,-1.3086 25.488,-0.5273 42.078,-0.5468 42.078,-0.5468 0,-1.0547 0,-2.0899 0,-3.1446 0,-0.9765 0,-1.9336 0,-2.9101 0,0 -20.254,-0.2735 -47.98,0.7031 -19.578,0.7031 -21.797,0.8203 -27.129,1.0937 -2.219,0.0977 -16.746,1.4258 -16.746,1.4258 v 0" style="fill-opacity: 1; fill-rule: evenodd; stroke: none; fill: rgb(255, 255, 255);" id="path62"/>
      <path d="m 47.2891,69.5508 c 1.75,-4.5899 10.6211,-18.2617 20.1406,-25.9766 20.5781,-16.6797 65.4763,-24.8633 84.2893,-23.2617 2.304,0.2148 12.812,-0.1953 14.515,0.293 -6.937,0.7812 -17.543,3.6914 -28.793,8.8476 -3.011,1.3672 -7.359,3.4571 -10.218,5.1367 -0.621,-0.625 -1.637,-0.996 -2.989,-1.1718 -5.175,-0.6641 -38.3981,5.1367 -51.5192,19.8633 -3.8164,4.2968 -10.7187,11.0156 -15.0429,20.2539 -1.7305,-0.6641 -3.4571,-1.3282 -5.1914,-1.9922 -1.7344,-0.6641 -3.461,-1.3282 -5.1914,-1.9922 v 0" style="fill-opacity: 1; fill-rule: evenodd; stroke: none; fill: rgb(255, 255, 255);" id="path64"/>
      <path d="m 149.641,398.68 c 0,0 -0.016,1.105 1.007,1.418 1.239,0.379 3.446,0.84 8.09,1.453 6.328,0.832 17.102,1.808 35.461,2.422 40.789,1.347 69.106,1.601 70.629,1.621 0,2.031 0,1.777 0,2.031 0,0.344 0,1.145 0,2.629 0,0 -42.773,0.84 -73.539,-0.461 -28.281,-1.191 -46.125,-2.031 -53.109,-3.055 -1.246,-0.187 -1.332,-0.527 -1.332,-0.527 3.113,-1.828 3.191,-1.797 4.066,-2.285 1.039,-0.578 4.77,-2.942 8.727,-5.246 v 0" style="fill-opacity: 1; fill-rule: evenodd; stroke: none; fill: rgb(255, 255, 255);" id="path66"/>
      <path d="m 40.918,367.156 c 0.332,0.598 15.6836,17.93 32.2265,23.438 5.4922,1.828 23.6328,6.594 29.0115,5.402 1.528,-0.344 1.34,-0.988 1.34,-1.543 4.5,3.32 6.801,4.942 8.199,5.516 5.18,2.14 6.25,3.008 23.516,6.437 -0.754,0 -3.238,-0.215 -4.27,-0.265 -10.257,-0.496 -33.7887,-3.621 -58.9254,-12.891 -19.1797,-7.07 -31.3125,-25.086 -31.6484,-25.691 0.0859,-0.051 0.1641,-0.118 0.2539,-0.188 0.1016,-0.066 0.1992,-0.144 0.2969,-0.215 v 0" style="fill-opacity: 1; fill-rule: evenodd; stroke: none; fill: rgb(255, 255, 255);" id="path68"/>
      <path d="m 357.855,23.1641 c -0.136,0.5859 -0.007,0.0195 -0.136,0.5859 -3.778,16.2305 -5.711,24.9609 -9.746,39.5117 -4.434,15.8399 -8.008,26.1133 -13.68,41.0043 -3.555,9.367 -11.641,21.836 -23.703,26.261 -11.524,4.207 -20.848,6.602 -45.762,6.602 0,-1.992 0,-2.785 0,-4.121 0,-3.582 0,-6.399 0,-6.922 0,-1.047 0,0.269 0,-3.43 19.961,0 32.051,-1.269 41.758,-7.527 5.09,-3.285 11.34,-9.887 14.992,-18.9571 5.469,-13.6328 8.203,-22.9688 12.168,-35.7617 4.219,-13.6524 6.152,-20.5274 8.32,-28.4571 0.086,-0.2929 0.313,-1.1523 0.332,-1.875 0,-0.3711 -0.058,-0.7422 -0.246,-0.9179 4.836,-2.2071 6.184,-2.6758 6.914,-2.9493 0.872,-0.2929 2.903,-1.0742 4.981,-1.8359 1.113,-0.3906 2.082,-0.6641 3.808,-1.2109 v 0" style="fill-opacity: 1; fill-rule: evenodd; stroke: none; fill: rgb(255, 255, 255);" id="path70"/>
      <path d="m 393.031,405.664 c -6.277,-31.262 -22.246,-104.094 -25.508,-118.859 -3.269,-14.762 -20.652,-80.211 -30.457,-96.746 -5.128,-8.625 -10.761,-14.746 -17.519,-19.075 -12.891,-8.25 -29.805,-9.921 -54.719,-9.921 0,2.91 0,5.839 0,8.75 0,2.726 0,5.07 0,8.761 19.961,0 32.051,0.723 41.758,6.981 5.09,3.285 9.512,8.078 14.074,15.09 14.285,21.992 25.731,67.168 31.863,89.484 4.004,14.578 23.118,89.988 27.598,107.762 3.399,2.039 5.039,2.722 6.465,3.886 1.262,1.036 2.551,1.641 6.445,3.887 v 0" style="fill-opacity: 1; fill-rule: evenodd; stroke: none; fill: rgb(255, 255, 255);" id="path72"/>
      <path d="m 264.828,160.301 c 59.902,0 75.52,10.879 99.16,112.082 23.653,101.219 28.86,133.379 28.86,133.379 0,0 10.398,-1.418 20.8,-5.207 10.411,-3.778 13.106,-8.524 13.106,-8.524 0,0 2.156,-71.504 -10.566,-201.902 C 403.461,59.7266 400.844,37.5 400.844,37.5 c 0,0 -20.391,-12.0312 -30.223,-13.3984 -8.723,-1.211 -12.773,-0.9571 -12.773,-0.9571 0,0 -5.879,28.6524 -14.719,55.6055 -12.988,39.637 -16.016,58.379 -78.301,58.379 v 23.172 0" style="fill-opacity: 1; fill-rule: evenodd; stroke: none; fill: rgb(255, 255, 255);" id="path74"/>
      <path d="m 264.828,137.129 c 37.688,0 54.902,-7.754 64.102,-22.258 5.84,-9.219 9.394,-21.4726 14.453,-36.8827 4.922,-15.0391 5.246,-18.7695 7.59,-26.25 2.343,-7.4414 6.882,-28.5742 6.882,-28.5742 0,0 13.86,0.1367 20.645,2.3437 11.953,3.8867 16.418,5.7422 23.535,9.6094 0,0 -1.25,1.3476 -1.101,2.8906 1.121,11.7969 10.671,105.5782 11.707,115.8592 1.945,19.442 0.664,6.719 3.547,36.27 4.05,41.59 6.601,77.207 8.183,106.406 3.379,62.344 2.371,95.496 2.371,95.496 0,0 -2.344,4.152 -11.172,7.785 -1.55,0.633 -14.441,6.211 -14.734,3.426 -0.246,-2.305 -1.016,-8.836 -3.125,-21.316 -3.234,-19.211 -9.629,-52.5 -22.102,-106.094 -0.273,-1.145 -0.535,-2.285 -0.8,-3.438 -11.825,-51.183 -12.403,-79.277 -25.918,-98.144 -5.477,-7.637 -10.664,-13.145 -16.571,-17.278 -13.965,-9.746 -31.992,-16.003 -67.492,-19.851 v 0" style="fill-opacity: 1; fill-rule: evenodd; stroke: none; fill: rgb(255, 255, 255);" id="path76"/>
      <path d="m 264.828,19.4531 h 91.8672 v 9.19922 H 264.828 Z" style="fill-opacity: 1; fill-rule: nonzero; stroke: none; fill: rgb(255, 255, 255);" id="path78"/>
      <path d="m 356.684,22.9492 c -2.547,0.8789 -6.231,1.9141 -8.496,2.7735 -2.137,0.8007 -4.317,1.8945 -6.563,2.9296 -1.113,-0.7812 -2.461,-0.8789 -3.758,-1.0156 -3.496,-0.3515 -12.023,-0.8984 -30.957,-1.3086 -25.488,-0.5273 -42.082,-0.5468 -42.082,-0.5468 0,-1.0547 0,-2.0899 0,-3.1446 0,-0.9765 0,-1.9336 0,-2.9101 0,0 20.254,-0.2735 48,0.7031 19.578,0.7031 21.785,0.8203 27.117,1.0937 2.207,0.0977 16.739,1.4258 16.739,1.4258 v 0" style="fill-opacity: 1; fill-rule: evenodd; stroke: none; fill: rgb(255, 255, 255);" id="path80"/>
      <path d="M 482.379,69.5508 C 480.629,64.9609 471.742,51.2891 462.23,43.5742 441.664,26.8945 396.762,18.7109 377.945,20.3125 c -2.304,0.2148 -12.812,-0.1953 -14.523,0.293 6.953,0.7812 17.551,3.6914 28.808,8.8476 3,1.3672 7.344,3.4571 10.208,5.1367 0.613,-0.625 1.64,-0.996 2.996,-1.1718 5.175,-0.6641 38.398,5.1367 51.515,19.8633 3.817,4.2968 10.723,11.0156 15.047,20.2539 1.731,-0.6641 3.457,-1.3282 5.176,-1.9922 1.738,-0.6641 3.476,-1.3282 5.207,-1.9922 v 0" style="fill-opacity: 1; fill-rule: evenodd; stroke: none; fill: rgb(255, 255, 255);" id="path82"/>
      <path d="m 472.594,74.7461 c 0.937,1.9922 5.156,15.125 7.344,24.2383 0.515,2.1676 4.46,23.6606 5.156,27.6636 2.48,11.516 5.527,30.95 7.625,53.118 4.172,44.152 6.816,93.992 6.816,109.754 0.547,-2.157 0.879,-26.504 1.133,-29.762 0.148,-2.024 0.246,-15.09 0.246,-17.57 0,-63.254 -13.633,-160.8794 -28.32,-167.4419 v 0" style="fill-opacity: 1; fill-rule: evenodd; stroke: none; fill: rgb(255, 255, 255);" id="path84"/>
      <path d="m 380.023,398.68 c 0,0 0.02,1.105 -1.015,1.418 -1.231,0.379 -3.438,0.84 -8.086,1.453 -6.328,0.832 -17.109,1.808 -35.457,2.422 -40.793,1.347 -69.113,1.601 -70.637,1.621 0,2.031 0,1.777 0,2.031 0,0.344 0,1.145 0,2.629 0,0 42.785,0.84 73.535,-0.461 28.301,-1.191 46.133,-2.031 53.125,-3.055 1.242,-0.187 1.328,-0.527 1.328,-0.527 -3.105,-1.828 -3.203,-1.797 -4.062,-2.285 -1.043,-0.578 -4.766,-2.942 -8.731,-5.246 v 0" style="fill-opacity: 1; fill-rule: evenodd; stroke: none; fill: rgb(255, 255, 255);" id="path86"/>
    </g>
  </g>
</svg>