<?xml version="1.0" encoding="utf-8"?>
<svg viewBox="0 0 500 500" style="shape-rendering: geometricprecision;" xmlns="http://www.w3.org/2000/svg">
  <g id="Layer_x0020_1" transform="matrix(0.117984, 0, 0, 0.117984, -441.327576, 9.985384)" style="">
    <g id="_1711089431024">
      <g>
        <path class="fil12" d="M5688.23 105.74c536.26,-10.76 1083.45,40.71 1587.41,234.65 93.52,37.34 196.63,83.43 243.23,178.98 44.08,94.53 34.83,202.35 35.16,303.79 -9.25,625.41 -130.36,1258.55 -421.2,1816.67 -163.33,315.24 -378.65,602.53 -631.3,851.82 -159.97,155.43 -325.48,307.49 -512.37,430.28 -52.48,30.45 -107.99,70.48 -171.4,65.1 -90,-21.7 -164.34,-81.08 -238.87,-133.06 -455.01,-348.19 -847.27,-789.24 -1093.02,-1309.85 -273.85,-570.39 -378.47,-1209.59 -373.77,-1838.7 1.18,-91 16.32,-191.76 87.14,-256.18 85.79,-78.56 200.5,-112.03 307.65,-150.55 379.48,-130.36 782.01,-178.97 1181.34,-192.94l0 0zm-1151.4 364.01c-70.99,25.57 -146.69,46.26 -207.07,93.69 -43.41,33.3 -44.75,92.34 -45.92,142.13 -0.67,252.83 14.79,506.15 53.15,756.11 74.02,490.16 242.73,969.39 517.92,1383.36 201.69,307.32 460.23,573.76 743.83,806.07 73.84,60.39 151.22,116.9 234.65,163.66 150.21,-84.6 280.58,-199.16 408.25,-313.71 305.14,-274.18 565.69,-600.17 750.73,-966.87 264.59,-517.08 376.62,-1100.44 388.56,-1677.74 -0.17,-77.88 8.07,-156.93 -6.73,-233.97 -13.79,-57.03 -71.83,-85.29 -120.95,-107.15 -470.49,-187.73 -982.86,-242.23 -1485.8,-239.03 -415.99,8.25 -836.18,55.51 -1230.62,193.45z" style="fill: rgb(255, 255, 255);"/>
      </g>
      <g>
        <path class="fil12" d="M5641.64 580.59c46.59,-38.68 119.09,-12.78 141.97,40.04 35.83,78.89 35.83,174.77 2.35,254.5 -20.18,49.45 -79.56,78.05 -130.02,56.18 -54.68,-22.54 -67.62,-88.66 -71.67,-141.3 -3.87,-71.83 -1.85,-158.79 57.36,-209.43l0 0zm9.25 226.58c3.36,29.94 13.46,65.77 47.6,72.33 19.68,-10.93 33.31,-29.78 37.85,-51.8 16.48,-71.99 13.79,-153.75 -35.5,-213.12 -59.54,45.59 -57.19,125.65 -49.95,192.6z" style="fill: rgb(255, 255, 255);"/>
      </g>
      <g>
        <path class="fil12" d="M5849.38 565.63c64.43,8.74 150.21,-14.8 195.3,45.08 38.35,54.49 11.77,123.97 -31.63,166.52 17.66,53.83 36.16,107.33 54.67,160.98 -24.05,-1.18 -48.11,-2.19 -71.99,-3.2 -22.71,-56.52 -31.46,-122.12 -77.21,-166.02 -4.03,54.33 -4.2,108.66 -4.37,163.16 -21.53,0 -43.23,0 -64.76,0 0,-122.29 0,-244.41 0,-366.52l0 0zm65.44 60.39c-0.34,32.96 -0.34,65.93 -0.34,98.91 32.8,-4.88 85.96,-2.69 83.26,-49.96 4.88,-45.75 -53.83,-39.36 -82.92,-48.94z" style="fill: rgb(255, 255, 255);"/>
      </g>
      <path class="fil12" d="M6104.89 640.98c15.47,-53.15 76.37,-83.26 128,-62.74 47.45,13.11 62.59,64.25 80.07,104.29 -21.53,4.37 -42.89,8.74 -64.43,12.95 -17.15,-21.19 -24.22,-61.39 -59.03,-56.85 -44.08,49.28 -39.87,121.95 -30.62,183.01 4.04,32.13 28.1,80.91 67.45,59.89 7.24,-17.33 13.63,-34.99 19.35,-53 -43.07,-5.71 -44.41,-42.89 -46.43,-77.03 36.33,2.69 72.5,5.71 108.83,8.74 -1.85,46.77 3.87,95.54 -11.11,140.79 -31.46,72.67 -149.03,63.76 -180.15,-5.21 -36.84,-78.22 -38.18,-173.09 -11.94,-254.84z" style="fill: rgb(255, 255, 255);"/>
      <g>
        <path class="fil12" d="M5343.9 589.85c59.22,0.83 135.08,-29.44 181.67,21.03 35.16,39.53 19.18,95.36 -2.85,137.08 40.36,54.34 41.37,141.3 -18.34,182.01 -48.94,25.73 -107.15,18.83 -160.47,25.9 0,-121.95 0,-243.9 0,-366.02l0 0zm66.12 50.3c-0.17,30.78 -0.17,61.39 0,92.18 29.09,-9.09 76.69,-17.5 68.96,-59.22 4.71,-34.14 -49.12,-20.51 -68.96,-32.96l0 0zm0.83 143.98c0,35.49 0.16,70.98 0.67,106.48 34.14,-8.75 83.61,-20.52 74.52,-67.29 -1.01,-39.02 -49.79,-29.94 -75.19,-39.19z" style="fill: rgb(255, 255, 255);"/>
      </g>
      <path class="fil12" d="M5164.77 824.68c19.84,-73.68 39.69,-147.19 59.54,-220.87 16.65,-2.02 50.13,-6.22 66.94,-8.41 0.17,122.63 0,245.25 0,368.05 -21.87,2.35 -43.9,4.71 -65.76,7.23 1.51,-58.2 2.86,-116.4 3.2,-174.59 -22.71,70.64 -44.08,141.62 -66.62,212.28 -22.54,-73.17 -44.24,-146.34 -66.61,-219.52 1.01,67.12 2.51,134.4 4.03,201.51 -15.3,2.86 -45.92,8.42 -61.39,11.11 -0.67,-121.44 -0.34,-242.89 -0.17,-364.34 21.7,-4.88 43.41,-9.59 64.94,-14.47 20.69,67.45 41.21,134.74 61.9,202.03z" style="fill: rgb(255, 255, 255);"/>
      <path class="fil12" d="M6356.03 594.72c22.2,3.2 44.41,6.39 66.62,9.75 -0.17,46.27 0,92.35 0,138.61 27.25,4.2 54.67,8.25 82.08,12.45 0,-46.59 0,-93.19 0,-139.78 22.55,4.37 44.91,8.74 67.46,13.11 0.16,121.12 0,242.06 0,363 -22.88,-4.03 -45.92,-8.07 -68.81,-12.1 0.51,-53.16 0.84,-106.14 1.34,-159.3 -27.75,-3.7 -55.67,-7.4 -83.42,-11.1 -0.51,53.48 -1.02,106.98 -1.35,160.64 -21.36,-3.2 -42.55,-6.39 -63.92,-9.59 0,-121.78 0,-243.73 0,-365.69z" style="fill: rgb(255, 255, 255);"/>
      <path class="fil12" d="M6624.16 639.97c22.7,4.2 45.41,8.41 68.29,12.62 0,120.94 0,242.04 0,362.99 -22.87,-4.37 -45.59,-8.74 -68.29,-13.12 -0.17,-120.94 -0.17,-241.72 0,-362.49z" style="fill: rgb(255, 255, 255);"/>
      <g>
        <path class="fil12" d="M4854.08 678.49c20.86,-5.39 41.72,-10.6 62.58,-15.98 31.28,114.72 62.24,229.44 93.35,344.33 -23.21,5.72 -46.42,11.6 -69.47,17.49 -7.24,-30.61 -14.64,-61.06 -21.87,-91.51 -21.19,6.06 -42.39,12.29 -63.58,18.34 -6.57,32.29 -13.12,64.42 -19.85,96.55 -22.87,6.73 -45.75,13.29 -68.63,19.85 27.42,-130.03 58.71,-259.38 87.47,-389.07l0 0zm11.43 209.59c10.77,-2.19 32.3,-6.73 43.07,-8.92 -7.24,-35.66 -14.64,-71.32 -22.21,-106.82 -6.89,38.52 -13.79,77.05 -20.86,115.73z" style="fill: rgb(255, 255, 255);"/>
      </g>
      <path class="fil12" d="M6747.62 1026.52c0.17,-121.11 0,-242.06 0.17,-362.99 15.3,3.52 45.92,10.76 61.22,14.29 28.94,72.66 57.36,145.5 86.63,218 0.34,-64.43 0.34,-129.02 0.51,-193.44 22.03,7.4 44.07,14.63 66.11,21.87 0,122.62 0,245.25 0,367.87 -18.17,-6.56 -36.34,-13.11 -54.5,-19.68 -32.46,-83.6 -63.92,-167.54 -96.22,-251.14 -0.51,74.69 -0.34,149.54 -0.34,224.39 -21.19,-6.39 -42.39,-12.79 -63.58,-19.18z" style="fill: rgb(255, 255, 255);"/>
      <path class="fil12" d="M4578.89 766.13c22.2,-8.41 44.58,-16.82 66.77,-25.24 0.17,102.28 0,204.72 0,307.15 37.01,-13.62 74.02,-27.24 111.19,-40.87 0.83,21.19 1.68,42.55 2.52,63.75 -60.05,22.21 -120.27,43.57 -180.49,65.1 -0.17,-123.3 -0.17,-246.6 0,-369.89z" style="fill: rgb(255, 255, 255);"/>
      <path class="fil12" d="M7016.76 1109.95c0.17,-121.78 -0.16,-243.4 0.17,-365.18 22.04,7.56 44.07,15.3 66.28,22.87 -0.17,123.12 0,246.26 -0.17,369.39 -22.2,-9.09 -44.24,-18.17 -66.28,-27.09z" style="fill: rgb(255, 255, 255);"/>
      <g>
        <path class="fil12" d="M5759.05 1084.05c62.74,-18.67 129.18,-19.85 193.77,-29.27 33.31,-8.57 64.43,7.06 94.7,18.84 68.46,10.42 133.89,33.63 198.16,58.71 -80.75,12.79 -162.15,34.31 -244.42,20.69 -70.81,-5.04 -153.24,-57.02 -211.43,9.09 184.85,89.32 404.21,11.6 593.11,88.98 37.18,14.96 73.51,42.55 81.58,84.11 12.79,57.86 -14.63,113.87 -31.62,167.7 91.67,128.68 127.84,292.85 102.6,448.62 -14.97,75.01 29.61,144.83 21.54,220.02 50.8,64.25 126.82,97.9 206.89,106.98 -65.26,64.93 -158.96,77.71 -247.1,75.36 22.04,47.6 26.74,99.91 24.39,151.73 -9.25,70.14 49.12,130.36 23.55,200.5 24.73,35.32 48.28,84.28 9.59,119.77 -18.83,33.64 -69.8,7.74 -75.03,-23.55 -9.24,-80.91 -7.9,-163 -19.01,-243.74 -6.05,-47.76 -45.41,-79.73 -76.7,-112.19 -40.2,28.93 -83.76,54.5 -117.74,91.17 -25.74,32.3 -35.66,73.34 -50.3,111.02 5.72,10.42 17.15,31.28 22.87,41.72 -15.31,35.82 -27.59,74.85 -55,103.78 -59.04,11.78 -122.12,10.93 -179.31,-8.25 -59.22,-20.52 -72.34,-88.98 -102.11,-136.58 -29.09,51.47 -48.61,107.32 -71.15,161.82 -30.62,14.63 -75.03,11.77 -94.88,-19.01 10.43,-67.79 65.94,-114.89 101.77,-169.9 -8.57,-6.05 -25.56,-17.82 -33.98,-23.88 -44.07,79.9 -107.32,151.06 -128.34,241.72 -13.79,43.4 -12.62,89.32 -17.66,134.23 -10.77,72.66 -148.36,79.57 -154.59,1.01 13.46,-41.21 48.78,-69.47 74.18,-103.11 28.43,-31.46 25.06,-76.53 32.97,-115.39 5.05,-56.36 47.09,-98.41 66.78,-149.21 -11.27,-43.23 -66.11,-57.86 -80.06,-100.59 -14.97,-27.59 -10.1,-76.03 -52.49,-74.86 -82.76,78.56 -60.22,202.7 -112.7,296.56 -25.73,55.68 -86.63,87.81 -102.95,148.87 -19.01,53.99 -9.08,116.06 -36.83,166.69 -33.64,49.96 -161.66,43.23 -138.11,-32.96 41.38,-76.7 114.89,-134.74 141.13,-220.19 15.31,-50.3 31.96,-100.09 49.12,-149.88 28.93,-84.95 21.03,-176.62 43.06,-263.09 15.31,-61.22 35.66,-121.44 44.4,-184.18 10.26,-57.36 7.91,-118.43 35.33,-171.41 74.52,-137.6 91.51,-303.62 192.59,-427.59 90.16,-102.78 214.13,-170.91 340.63,-218.67 106.32,-38.36 198.16,54.49 303.29,49.44 28.6,4.55 49.29,-21.87 55.51,-46.76 -9.25,-33.64 -33.98,-62.75 -68.46,-71.66 -105.3,-31.63 -216.82,-30.11 -325.49,-37.18 -78.05,-5.39 -163,-2.86 -231.12,-46.59 -46.43,-30.11 -52.65,-118.58 5.05,-139.45l0 0zm103.11 439.87c-61.57,49.96 -137.94,95.04 -160.14,176.79 -37.18,123.47 -104.12,234.99 -143.65,357.28 -6.23,44.91 -28.1,114.55 21.87,140.62 19.68,-19.18 37.34,-40.2 55.34,-60.72 29.27,12.79 58.2,26.74 86.97,40.87 13.62,-7.74 27.25,-15.3 40.87,-22.87 52.65,5.72 96.22,-22.2 137.43,-50.46 15.48,37 35.66,73.51 39.2,114.22 -7.07,63.41 -58.71,108.66 -78.06,167.7 -6.22,37.85 28.27,63.07 47.77,90.83 28.93,77.04 92.85,135.41 110.86,217.84 28.09,-68.47 39.02,-142.14 39.19,-215.98 -23.22,12.95 -46.27,26.07 -69.14,39.19 7.4,-71.49 9.93,-147.02 50.13,-209.43 36.5,-48.77 -35.82,-90.66 -26.91,-140.96 40.03,-60.39 120.44,-65.26 185.53,-72.49 -33.14,37.17 -103.27,61.56 -95.2,120.77 27.25,64.25 101.59,90.66 163.83,108.83 -32.8,-36.17 -66.78,-71.16 -98.74,-108.16 27.76,-27.59 56.36,-54.33 85.62,-80.24 40.71,21.02 82.76,39.37 123.47,60.21 43.91,22.04 73,64.6 116.9,86.47 48.11,23.21 102.78,19.34 154.75,19.85 -55,-30.62 -110.85,-62.24 -152.56,-110.52 -46.26,-53.66 -130.7,-51.63 -173.09,-110.18 -46.09,-66.61 -40.71,-154.08 -82.09,-223.05 -48.95,-77.54 -40.71,-174.26 -77.71,-256.86 -16.15,-68.12 -58.53,-138.1 -131.71,-153.4 -64.6,-2.19 -121.12,37 -170.74,73.83z" style="fill: rgb(255, 255, 255);"/>
      </g>
    </g>
  </g>
</svg>