<?xml version="1.0" encoding="utf-8"?>
<svg viewBox="0 0 500 500" xmlns="http://www.w3.org/2000/svg">
  <g transform="matrix(2.356606, 0, 0, -2.356606, 216.207443, 476.962128)" id="g10" style="">
    <g transform="scale(0.1)" id="g12">
      <path id="path14" style="fill-opacity: 1; fill-rule: evenodd; stroke: none; fill: rgba(255, 255, 255, 0);" d="M -821.658 1933.23 L 1105.904 1933.23 L 1105.904 5.668 L -821.658 5.668 L -821.658 1933.23"/>
      <path id="path16" style="fill-opacity: 1; fill-rule: evenodd; stroke: none; fill: rgb(255, 255, 255);" d="M 158.818 1367.81 C 123.01 1323.66 20.857 1181.08 9.213 1162.63 C -13.193 1127.26 -15.174 1110.12 -15.83 1098.7 C -16.49 1087.5 -16.49 1067.29 1.744 1050.8 C 32.279 1023.57 75.119 1027.96 113.123 1027.96 L 426.174 1027.96 C 439.574 1027.96 443.534 1031.91 450.784 1041.58 C 475.824 1079.8 487.034 1121.33 487.034 1158.45 C 487.034 1237.98 435.404 1338.16 304.694 1383.41 L 289.974 1362.32 C 393.664 1313.11 436.504 1248.74 436.504 1158.67 C 437.164 1134.51 430.784 1108.37 414.974 1084.2 L 110.486 1084.2 C 92.256 1084.2 89.619 1104.85 96.209 1116.49 C 123.228 1164.38 150.908 1206.78 183.424 1250.28 C 214.174 1291.36 244.494 1329.8 276.354 1370.01 C 284.914 1381.21 279.204 1391.98 262.074 1395.49 C 226.484 1402.96 189.354 1408.23 144.318 1408.23 C -105.463 1408.23 -196.854 1264.78 -196.854 1158.45 C -196.854 1043.12 -104.803 909.332 144.978 909.332 C 283.604 909.332 374.324 953.93 426.834 1011.27 L 373.894 1011.27 C 327.974 968.867 249.114 938.766 144.978 938.766 C -66.58 938.766 -144.565 1057.62 -144.565 1159.99 C -143.029 1251.38 -59.326 1377.48 150.252 1381.65 C 158.162 1381.88 164.31 1374.62 158.818 1367.81"/>
      <path id="path18" style="fill-opacity: 1; fill-rule: evenodd; stroke: none; fill: rgb(255, 255, 255);" d="M 910.144 709.414 C 922.664 707.66 932.334 697.773 932.334 686.129 C 932.334 672.949 920.464 662.402 905.964 662.402 L 637.514 662.402 L 637.514 837.934 L 558.424 837.934 L 558.424 661.965 L 412.994 661.965 C 373.674 661.965 365.544 685.91 365.544 707.879 L 365.544 839.031 L 234.384 839.031 C 221.434 830.246 208.904 820.578 195.504 812.449 L 117.736 764.559 L 16.685 838.371 L -140.611 838.371 L -140.611 794.215 L -83.713 794.215 L -83.713 818.379 L 50.076 722.379 L -41.315 665.039 L -140.611 665.039 L -140.611 620.883 L -25.717 620.883 C -13.416 629.23 -1.772 638.02 10.971 645.707 L 90.935 694.258 L 192.434 621.762 L 307.984 621.762 L 155.303 736.66 L 233.734 787.844 C 250.424 798.828 268.004 808.055 285.134 818.16 L 285.134 702.605 C 285.134 653.836 297.654 620.004 395.864 620.004 L 950.564 621.324 C 993.404 620.664 1020.864 650.32 1020.864 686.129 C 1020.864 721.719 989.224 750.938 950.564 750.938 L 750.204 750.938 C 752.844 775.324 773.934 795.754 795.244 795.754 L 998.014 795.754 L 997.354 838.152 L 782.284 838.152 C 714.184 838.152 659.704 781.691 658.164 716.008 C 657.944 711.395 661.024 708.535 666.064 708.535 L 910.144 709.414 L 910.144 709.414 Z M -140.611 710.074 L -140.611 755.113 L -101.506 755.113 L -101.506 710.074 L -140.611 710.074 Z M -140.611 838.371 L -289.119 838.371 C -329.322 838.371 -360.295 827.828 -383.143 809.813 C -424.225 777.301 -437.408 743.027 -436.967 727.652 L -383.365 727.652 C -406.873 710.074 -422.686 688.988 -431.033 664.602 L -606.787 664.602 C -638.416 664.602 -658.85 687.008 -658.85 708.758 L -658.85 839.91 L -736.619 839.91 L -736.619 703.703 C -736.619 654.715 -690.045 620.883 -615.354 620.883 L -140.611 620.883 L -140.611 665.039 L -329.1 665.039 C -328.221 687.445 -304.279 710.074 -282.529 710.074 L -140.611 710.074 L -140.611 755.113 L -331.299 755.113 C -333.936 768.293 -309.33 794.215 -290.436 794.215 L -140.611 794.215 L -140.611 838.371"/>
    </g>
  </g>
</svg>