<?xml version="1.0" encoding="utf-8"?>
<svg viewBox="0 0 500 500" xmlns="http://www.w3.org/2000/svg">
  <g id="g10" transform="matrix(2.378483, 0, 0, -2.378483, 21.832035, 445.228333)" style="">
    <g id="g12" transform="scale(0.1)">
      <path d="M 2.59766,1933.23 H 1930.16 V 5.66797 H 2.59766 V 1933.23" style="fill-opacity: 1; fill-rule: evenodd; stroke: none; fill: rgba(255, 255, 255, 0);" id="path14"/>
      <path d="M 966.152 -62.292 C 466.453 -62.069 61.469 338.641 61.469 832.72 C 61.469 1327.027 466.676 1727.727 966.152 1727.507 C 1466.3 1727.507 1871.29 1326.797 1871.29 832.72 C 1871.29 338.415 1466.08 -62.292 966.152 -62.292 Z M 224.133 403.438 L 240.336 416.036 C 193.539 501.759 175.539 558.907 155.063 622.356 C 153.266 627.079 152.141 630.227 150.113 632.927 C 148.766 629.329 149.438 626.177 149.664 622.13 C 162.715 552.829 194.215 465.536 224.133 403.438 Z M 978.754 1638.637 L 1101.82 922.937 L 973.129 847.567 L 968.852 1638.407 C 968.852 1647.857 962.555 1647.857 961.203 1638.407 L 888.531 888.287 L 834.535 919.567 L 950.18 1638.407 C 501.996 1635.707 148.09 1275.947 148.09 831.372 C 148.09 690.973 192.188 543.38 255.637 428.411 L 820.363 897.967 L 874.578 866.917 L 240.563 411.313 C 225.262 400.512 229.762 395.337 246.637 404.559 L 954.68 813.595 L 954.68 666.45 L 270.934 405.462 C 414.023 171.7 667.816 22.755 963.902 22.755 C 1259.31 22.755 1517.38 171.923 1660.47 405.239 L 977.852 666.001 L 977.852 813.145 L 1658.89 420.313 C 1674.42 411.762 1678.92 416.489 1664.3 426.837 L 1057.95 866.687 L 1112.17 897.737 L 1676.45 427.735 C 1741.24 543.38 1783.99 691.2 1783.99 832.72 C 1783.99 1271.677 1419.06 1626.707 978.754 1638.637 Z M 1827.87 994.707 C 1829.44 990.437 1830.79 986.837 1832.82 984.357 C 1834.16 987.957 1833.04 991.107 1832.82 995.157 C 1758.34 1401.947 1405.56 1705.907 967.953 1705.907 C 478.148 1705.907 81.941 1308.797 81.941 819.22 C 81.941 703.571 111.422 593.329 151.465 492.305 C 169.918 445.735 228.855 339.54 243.262 318.618 C 246.41 314.118 247.758 311.868 251.359 309.169 C 251.133 313.442 250.91 315.47 248.664 320.641 C 246.184 324.915 196.012 420.54 166.988 491.634 C 142.242 552.829 111.422 674.774 111.422 816.071 C 111.422 1291.027 496.824 1676.427 971.777 1676.427 C 1220.17 1676.207 1453.7 1554.937 1596.8 1397.887 C 1705.47 1278.647 1761.72 1198.547 1827.87 994.707 Z M 252.035 398.489 L 232.461 391.29 C 359.582 148.302 626.191 -28.32 966.152 -28.32 C 1448.53 -28.546 1834.16 361.813 1834.16 832.72 C 1834.16 947.917 1800.87 1018.557 1782.19 1069.627 C 1768.46 1107.877 1738.99 1166.607 1725.94 1190.677 C 1723.25 1195.407 1721.45 1197.427 1717.84 1200.357 C 1718.07 1196.077 1718.29 1193.607 1720.99 1188.877 C 1731.12 1168.857 1753.61 1118.457 1769.59 1067.837 C 1791.19 1000.557 1804.69 925.197 1804.69 832.72 C 1804.69 685.802 1758.57 535.509 1690.62 415.813 C 1694.45 405.915 1690.84 400.962 1679.37 397.813 C 1531.1 159.325 1266.74 3.18 965.926 3.403 C 683.34 3.403 457.453 154.821 386.129 233.345 C 328.082 297.243 285.109 344.716 252.035 398.489 Z M 921.379 869.167 L 958.727 847.345 L 963.457 1428.047 C 963.457 1439.747 959.855 1440.197 958.953 1428.497 L 921.379 869.167 Z M 986.625 825.294 L 1489.03 531.231 C 1498.03 526.059 1499.83 529.204 1491.28 534.833 L 1024.88 847.345 L 986.625 825.294 Z M 910.129 845.548 L 783.91 742.274 C 776.938 736.423 780.09 733.723 788.414 738.446 L 945.906 825.747 L 910.129 845.548" style="fill-opacity: 1; fill-rule: evenodd; stroke: none; fill: rgb(255, 255, 255);" id="path16"/>
    </g>
  </g>
</svg>