<?xml version="1.0" encoding="utf-8"?>
<svg viewBox="0 0 500 500" xmlns="http://www.w3.org/2000/svg">
  <g id="Layer_1_1_" style="fill: rgb(255, 255, 255);" transform="matrix(0.970055, 0, 0, 0.970055, 4.099704, 45.744755)">
    <g id="Nissan_Badge_1_" style="fill:#FFFFFF">
      <g id="g20" style="fill:#FFFFFF">
        <path class="st0" d="M293.7,227.7c-0.4,0.1-2,0.1-2.7,0.1h-51.6v12h52.5c0.4,0,3.5,0,4.1-0.1c10.7-1,15.6-9.9,15.6-17.7     c0-8-5.1-16.6-14.8-17.5c-1.9-0.2-3.5-0.2-4.2-0.2h-34.3c-1.5,0-3.2-0.1-3.8-0.3c-2.7-0.7-3.7-3.1-3.7-5.1c0-1.8,1-4.2,3.8-5     c0.8-0.2,1.7-0.3,3.6-0.3h49.5v-11.8h-50.3c-2.1,0-3.7,0.1-5,0.3c-8.6,1.2-14.6,8.1-14.6,16.9c0,7.2,4.5,15.6,14.4,17     c1.8,0.2,4.3,0.2,5.4,0.2H291c0.6,0,2.1,0,2.4,0.1c3.8,0.5,5.1,3.3,5.1,5.8C298.5,224.5,297,227.1,293.7,227.7z" id="path4" style="fill:#FFFFFF"/>
        <path class="st0" d="M195.9,227.7c-0.4,0.1-2,0.1-2.6,0.1h-51.7v12h52.5c0.4,0,3.5,0,4.1-0.1c10.7-1,15.6-9.9,15.6-17.7     c0-8-5.1-16.6-14.8-17.5c-1.9-0.2-3.5-0.2-4.2-0.2h-34.3c-1.5,0-3.2-0.1-3.8-0.3c-2.7-0.7-3.7-3.1-3.7-5.1c0-1.8,1-4.2,3.8-5     c0.8-0.2,1.7-0.3,3.6-0.3h49.5v-11.8h-50.3c-2.1,0-3.7,0.1-5,0.3c-8.6,1.2-14.6,8.1-14.6,16.9c0,7.2,4.5,15.6,14.4,17     c1.8,0.2,4.3,0.2,5.4,0.2h33.4c0.6,0,2.1,0,2.4,0.1c3.8,0.5,5.1,3.3,5.1,5.8C200.7,224.5,199.3,227.1,195.9,227.7z" id="path6" style="fill:#FFFFFF"/>
        <rect x="101.7" y="181.4" class="st0" width="13" height="58.7" id="rect8" style="fill:#FFFFFF"/>
        <polygon class="st0" points="73,240.1 73,181.4 60,181.4 60,225.2 16.7,181.4 0,181.4 0,240.1 13,240.1 13,196.1 56.6,240.1     " id="polygon10" style="fill:#FFFFFF"/>
        <polygon class="st0" points="491.1,181.4 491.1,225.2 447.8,181.4 431.1,181.4 431.1,240.1 444.1,240.1 444.1,196.1 487.6,240.1     504,240.1 504,181.4    " id="polygon12" style="fill:#FFFFFF"/>
        <path class="st0" d="M363.4,181.4l-36.6,58.7h15.8l6.5-10.5h42.7l6.5,10.5H414l-36.6-58.7H363.4z M385.1,218.5h-29.3l14.7-23.6     L385.1,218.5z" id="path14" style="fill:#FFFFFF"/>
        <path class="st0" d="M72.3,148.1C98.5,71.6,170.7,20.2,252.1,20.2s153.7,51.4,179.8,127.9l0.2,0.6h57.3v-6.9l-23.8-2.8     c-14.7-1.7-17.8-8.2-21.8-16.4l-1-2C408.4,47.4,333.5,0,252.1,0C170.6,0,95.8,47.4,61.4,120.8l-1,2c-4,8.2-7.1,14.7-21.8,16.4     L14.8,142v6.9H72L72.3,148.1z" id="path16" style="fill:#FFFFFF"/>
        <path class="st0" d="M432.1,272.9l-0.2,0.6c-26.2,76.5-98.4,127.8-179.8,127.8l0,0c-81.4,0-153.7-51.4-179.8-127.9l-0.2-0.6H14.9     v6.9l23.8,2.8c14.7,1.7,17.8,8.2,21.8,16.4l1,2c34.4,73.4,109.3,120.8,190.7,120.8l0,0c81.4,0,156.3-47.4,190.7-120.7l1-2     c4-8.2,7.1-14.7,21.8-16.4l23.8-2.8v-6.9L432.1,272.9z" id="path18" style="fill:#FFFFFF"/>
      </g>
      <g id="Layer_2_2_" style="fill:#FFFFFF">
        <g id="Layer_3_1_" style="fill:#FFFFFF"/>
      </g>
    </g>
  </g>
</svg>