<?xml version="1.0" encoding="utf-8"?>
<svg viewBox="0 0 500 500" xmlns="http://www.w3.org/2000/svg">
  <g id="g10" transform="matrix(2.278851, 0, 0, -2.278851, 29.169884, 469.031586)" style="">
    <g id="g12" transform="scale(0.1)">
      <path d="M 0,1927.56 H 1927.56 V 0 H 0 v 1927.56" style="fill:#ffffff00;fill-opacity:1;fill-rule:evenodd;stroke:none" id="path14"/>
      <path d="M 914.512,1673.73 575.793,1821.04 915.594,550.043 1257.54,1821.04 914.512,1673.73 Z M 624.633,1762.38 915.594,1636.4 1208.66,1761.33 915.594,677.605 624.633,1762.38 v 0" style="fill-opacity: 1; fill-rule: evenodd; stroke: none; fill: rgb(255, 255, 255);" id="path16"/>
      <path d="M 915.594,1611.36 662.051,1721.27 915.594,757.504 1172.82,1720.74 915.594,1611.36 Z m 0,-250.63 -21.035,85.96 -131.301,20.51 131.301,21.03 21.035,83.6 20.504,-83.6 134.462,-21.03 -134.462,-20.51 -20.504,-85.96 v 0" style="fill-opacity: 1; fill-rule: evenodd; stroke: none; fill: rgb(255, 255, 255);" id="path18"/>
      <path d="m 1236.54,114.254 c 3.42,0 6.2,2.777 6.2,6.207 v 0 218.602 0 c 0,3.429 -2.78,6.21 -6.2,6.21 v 0 h -34.04 v 0 c -3.43,0 -6.21,-2.781 -6.21,-6.21 v 0 -218.602 0 c 0,-3.43 2.78,-6.207 6.21,-6.207 v 0 h 34.04 v 0" style="fill-opacity: 1; fill-rule: evenodd; stroke: none; fill: rgb(255, 255, 255);" id="path20"/>
      <path d="m 856.391,339.133 c 0,3.43 2.777,6.211 6.207,6.211 v 0 h 34.16 v 0 c 3.426,0 6.207,-2.781 6.207,-6.211 v 0 -178.375 0 c 0,-18.113 -6.899,-46.574 -46.574,-46.574 -13.371,0.429 -28.899,3.019 -40.543,19.839 v 0 L 708.031,286.691 v 0 c -4.312,6.036 -13.801,7.762 -13.801,-3.449 v 0 -162.851 0 c 0,-3.43 -2.781,-6.207 -6.21,-6.207 v 0 h -34.161 v 0 c -3.425,0 -6.207,2.777 -6.207,6.207 v 0 161.988 0 c -0.863,19.836 6.903,62.965 46.578,62.965 13.801,0 29.325,-0.864 43.125,-20.703 v 0 L 843.449,174.129 v 0 c 4.313,-6.035 12.942,-7.332 12.942,3.449 v 0 161.555" style="fill-opacity: 1; fill-rule: evenodd; stroke: none; fill: rgb(255, 255, 255);" id="path22"/>
      <path d="m 107.008,219.414 c -3.43,0 -6.207,-2.781 -6.207,-6.207 v 0 -34.16 0 c 0,-3.434 2.777,-6.211 6.207,-6.211 v 0 h 106.785 v 0 c 34.504,0 83.668,14.66 83.668,86.254 0,71.59 -56.066,86.254 -89.703,86.254 v 0 H 34.5586 v 0 c -3.4297,0 -6.2109,-2.781 -6.2109,-6.207 v 0 -218.746 0 c 0,-3.43 2.7812,-6.207 6.2109,-6.207 v 0 h 34.1562 v 0 c 3.4297,0 6.2071,2.777 6.2071,6.207 v 0 168.027 0 c 0,6.035 2.5898,10.348 8.625,10.348 v 0 H 211.207 v 0 c 14.664,0 39.676,-4.313 39.676,-38.813 0,-31.051 -14.664,-40.539 -39.676,-40.539 v 0 H 107.008" style="fill-opacity: 1; fill-rule: evenodd; stroke: none; fill: rgb(255, 255, 255);" id="path24"/>
      <path d="m 1425.88,281.945 c -5.18,9.059 -12.5,9.707 -17.9,0.434 v 0 l -92.72,-161.293 v 0 c -2.59,-5.176 -4.31,-6.902 -8.62,-6.902 -4.32,0 -37.96,0 -37.96,0 -6.25,0 -5.17,3.449 -3.45,6.035 v 0 l 115.58,200.976 v 0 c 20.71,35.36 53.48,32.774 72.46,-0.867 v 0 l 115.36,-200.969 v 0 c 3.23,-4.961 0.65,-5.175 -3.67,-5.175 v 0 h -34.93 v 0 c -6.04,0 -9.49,2.586 -11.21,6.035 v 0 l -19.84,34.504 v 0 c -1.51,2.8 -3.02,6.035 -12.29,6.035 v 0 h -117.95 v 0 c -2.38,0 -4.32,1.082 -1.94,5.176 2.37,4.101 22.64,37.089 22.64,37.089 1.08,1.727 2.8,4.313 6.9,4.313 v 0 h 65.77 v 0 c 3.45,0 5.17,2.59 3.02,6.254 -2.16,3.668 -39.25,68.355 -39.25,68.355 v 0 0" style="fill-opacity: 1; fill-rule: evenodd; stroke: none; fill: rgb(255, 255, 255);" id="path26"/>
      <path d="m 1807.77,160.758 c 3.43,0 6.21,-2.778 6.21,-6.207 v 0 -34.16 0 c 0,-3.43 -2.78,-6.207 -6.21,-6.207 v 0 h -136.28 v 0 c -50.89,0 -110.4,34.5 -111.27,116.441 -0.93,88.836 65.73,114.719 101.95,114.719 v 0 h 145.43 v 0 c 3.43,0 6.21,-2.781 6.21,-6.211 v 0 -32.434 0 c 0,-3.426 -2.78,-6.207 -6.21,-6.207 v 0 h -132.66 v 0 c -33.64,-0.863 -68.14,-14.664 -68.14,-69.867 0,-55.203 46.58,-69.867 68.14,-69.867 v 0 h 132.83 v 0" style="fill-opacity: 1; fill-rule: evenodd; stroke: none; fill: rgb(255, 255, 255);" id="path28"/>
      <path d="m 510.508,345.344 h -69.863 v 0 c -59.52,0 -113.86,-40.539 -113.86,-114.719 0,-74.18 45.715,-116.441 101.781,-116.441 v 0 h 78.489 v 0 c 56.066,0 102.648,40.539 102.648,119.894 0,79.352 -65.555,111.266 -99.195,111.266 v 0 z M 490.668,157.309 H 445.82 v 0 c -57.793,0 -72.457,37.953 -72.457,69.867 0,62.101 45.715,73.316 65.555,73.316 v 0 h 59.516 v 0 c 34.5,0 64.687,-25.015 64.687,-69.867 0,-59.516 -42.262,-73.316 -72.453,-73.316 v 0 0" style="fill-opacity: 1; fill-rule: evenodd; stroke: none; fill: rgb(255, 255, 255);" id="path30"/>
      <path d="m 1027.23,120.461 c 0,-3.43 2.78,-6.207 6.21,-6.207 v 0 h 34.04 v 0 c 3.43,0 6.2,2.777 6.2,6.207 v 0 l 0.07,174.211 v 0 c 0,3.449 1.72,5.82 4.96,5.82 v 0 h 87.16 v 0 c 3.43,0 6.21,2.781 6.21,6.207 v 0 32.434 0 c 0,3.43 -2.78,6.211 -6.21,6.211 v 0 H 935.051 v 0 c -3.43,0 -6.207,-2.781 -6.207,-6.211 v 0 -32.434 0 c 0,-3.426 2.777,-6.207 6.207,-6.207 v 0 h 86.729 v 0 c 3.45,0 5.39,-1.941 5.39,-5.176 v 0 l 0.06,-174.855 v 0" style="fill-opacity: 1; fill-rule: evenodd; stroke: none; fill: rgb(255, 255, 255);" id="path32"/>
      <path d="m 1129.52,900.211 c -21.67,0 -40.96,-14.984 -40.96,-40.746 0,-25.762 19.29,-40.742 40.96,-40.742 21.55,0 40.85,14.98 40.85,40.742 0,25.762 -19.3,40.746 -40.85,40.746 v 0 z m 0,-72.113 v 0.109 c -16.17,-0.109 -29.21,12.504 -29.21,31.258 0,18.758 13.04,31.262 29.21,31.262 15.74,0 29.1,-12.504 29.1,-31.262 0,-18.754 -13.36,-31.367 -29.1,-31.367 v 0 0" style="fill-opacity: 1; fill-rule: evenodd; stroke: none; fill: rgb(255, 255, 255);" id="path34"/>
      <path d="m 1137.17,856.77 c 5.82,0.433 10.56,3.339 10.56,11.425 0,10.028 -6.68,13.258 -18,13.258 v 0 h -16.38 v -43.867 h 9.38 v 18.434 h 4.41 l 10.14,-18.434 h 11.1 l -11.21,19.184 z m -6.14,6.683 h -8.3 v 10.567 h 6.57 v 0 c 3.56,0 8.41,-0.325 8.41,-4.856 0,-4.848 -2.48,-5.711 -6.68,-5.711 v 0 0" style="fill-opacity: 1; fill-rule: evenodd; stroke: none; fill: rgb(255, 255, 255);" id="path36"/>
      <path d="m 1870.62,163.566 c -15.17,0 -28.67,-10.488 -28.67,-28.523 0,-18.031 13.5,-28.52 28.67,-28.52 15.09,0 28.59,10.489 28.59,28.52 0,18.035 -13.5,28.523 -28.59,28.523 v 0 z m 0,-50.476 v 0.07 c -11.32,-0.07 -20.45,8.754 -20.45,21.883 0,13.129 9.13,21.879 20.45,21.879 11.01,0 20.37,-8.75 20.37,-21.879 0,-13.129 -9.36,-21.953 -20.37,-21.953 v 0 0" style="fill:#231f20;fill-opacity:1;fill-rule:evenodd;stroke:none" id="path38"/>
      <path d="m 1875.97,133.156 c 4.08,0.301 7.4,2.34 7.4,8 0,7.016 -4.68,9.278 -12.6,9.278 v 0 h -11.47 v -30.707 h 6.56 v 12.902 h 3.1 l 7.09,-12.902 h 7.77 l -7.85,13.429 z m -4.29,4.68 h -5.82 v 7.394 h 4.6 v 0 c 2.5,0 5.89,-0.226 5.89,-3.394 0,-3.398 -1.73,-4 -4.67,-4 v 0 0" style="fill:#231f20;fill-opacity:1;fill-rule:evenodd;stroke:none" id="path40"/>
    </g>
  </g>
</svg>