<?xml version="1.0" encoding="utf-8"?>
<svg viewBox="0 0 500 500" xmlns="http://www.w3.org/2000/svg">
  <g transform="matrix(2.176212, 0, 0, -2.176212, 141.879715, 445.650269)" id="g10" style="">
    <g transform="scale(0.1)" id="g12">
      <path id="path14" style="fill-opacity: 1; fill-rule: evenodd; stroke: none; fill: rgba(255, 255, 255, 0);" d="M -435.271 1891.747 L 1492.289 1891.747 L 1492.289 -35.813 L -435.271 -35.813 L -435.271 1891.747"/>
      <path id="path16" style="fill-opacity: 1; fill-rule: evenodd; stroke: none; fill: rgb(255, 255, 255);" d="M 467.709 -7.465 C 124.596 169.507 -157.115 418.714 -171.564 718.488 L -251.021 1765.887 C 41.53 1832.697 218.502 1863.397 467.709 1863.397 L 467.709 -7.465"/>
      <path id="path18" style="fill-opacity: 1; fill-rule: evenodd; stroke: none;" d="M 467.709 1238.577 L 225.725 1238.577 L 225.725 826.839 C 225.725 714.875 319.627 586.66 467.709 586.66 L 467.709 1238.577"/>
      <path id="path20" style="fill-opacity: 1; fill-rule: evenodd; stroke: none; fill: rgb(255, 255, 255);" d="M 467.709 -7.465 C 810.819 169.507 1092.529 418.714 1106.979 718.488 L 1186.439 1765.887 C 893.889 1832.697 716.919 1863.397 467.709 1863.397 L 467.709 -7.465"/>
      <path id="path22" style="fill-opacity: 1; fill-rule: evenodd; stroke: none;" d="M 467.709 1834.507 C 763.869 1834.507 1031.139 1771.297 1155.739 1740.597 L 1142.429 1561.457 C 823.459 1641.277 633.849 1653.917 467.709 1653.917 C 301.569 1653.917 111.959 1641.277 -207.005 1561.457 L -220.318 1740.597 C -95.716 1771.297 171.549 1834.507 467.709 1834.507"/>
      <path id="path24" style="fill-opacity: 1; fill-rule: evenodd; stroke: none;" d="M 738.589 1071.667 L 737.959 872.808 L 1088.389 871.734 L 1104.029 1072.697 L 738.589 1071.667"/>
      <path id="path26" style="fill-opacity: 1; fill-rule: evenodd; stroke: none;" d="M 1118.689 1265.137 L 1134.389 1472.387 L 482.155 1476.097 L 482.155 1273.917 L 738.589 1273.917 L 738.589 1265.157 L 1118.689 1265.137"/>
      <path id="path28" style="fill:#231f20;fill-opacity:1;fill-rule:evenodd;stroke:none" d="M 196.889 1070.807 C 188.381 1060.067 178.436 1045.757 176.604 1038.077 C 180.561 1035.967 188.971 1028.857 196.948 1019.037 L 196.889 1070.807"/>
      <path id="path30" style="fill-opacity: 1; fill-rule: evenodd; stroke: none;" d="M 108.319 270.058 C 213.573 174.765 337.928 95.484 453.264 34.519 L 453.26 270.843 L 108.319 270.058"/>
      <path id="path32" style="fill-opacity: 1; fill-rule: evenodd; stroke: none;" d="M 453.256 474.007 L 453.256 558.093 C 354.338 562.617 285.104 613.308 243.721 673.023 L -138.666 672.601 C -127.615 602.386 -101.267 536.046 -64.056 473.937 L 453.256 474.007"/>
      <path id="path34" style="fill-opacity: 1; fill-rule: evenodd; stroke: none;" d="M 467.709 1238.577 L 709.689 1238.577 L 709.689 826.839 C 709.689 714.875 615.789 586.66 467.709 586.66 L 467.709 1238.577"/>
      <path id="path36" style="fill-opacity: 1; fill-rule: evenodd; stroke: none;" d="M 634.069 612.199 C 704.629 666.476 738.589 750.007 738.589 808.781 L 738.589 843.785 L 1087.339 844.859 L 1074.479 675.148 C 1031.139 389.82 734.979 167.699 482.155 34.07 L 482.163 558.093 C 524.538 560.031 561.463 570.437 593.089 586.402 L 592.319 579.167 C 583.839 554.308 584.319 543.851 583.829 538.488 C 582.379 527.292 568.659 526.21 566.209 527.433 C 563.229 529.214 559.741 530.238 556.018 530.238 C 545.014 530.238 536.096 521.32 536.096 510.32 C 536.096 508.437 536.354 507.16 536.842 505.433 C 529.694 502.41 526.526 496.535 526.526 488.285 C 526.526 477.285 533.635 468.367 544.639 468.367 C 549.202 468.367 552.155 467.843 555.514 470.421 C 559.167 466.281 564.51 463.671 570.459 463.671 C 581.459 463.671 587.079 466.617 587.799 489.007 C 661.389 527.968 773.349 557.769 822.919 555.101 C 878.979 552.089 919.709 495.871 924.049 492.257 C 928.389 488.648 931.999 488.648 931.269 494.425 C 927.659 517.542 920.529 552.347 865.899 582.191 C 869.519 597.359 896.149 600.203 901.119 602.417 C 904.849 604.082 906.169 608.917 901.119 608.917 C 864.549 613.746 838.449 597.359 833.389 590.859 C 828.339 592.304 803.599 594.109 796.369 593.386 C 800.439 611.941 811.269 625.488 827.439 639.078 C 825.089 637.105 831.769 644.855 826.709 644.855 C 786.269 641.242 761.159 599.347 758.269 588.511 C 754.659 587.789 710.779 580.566 703.549 578.398 C 710.139 620.972 758.449 649.91 762.789 652.8 C 767.119 655.691 768.569 660.023 762.789 660.023 C 702.019 657.992 657.509 579.48 655.339 562.867 C 645.949 559.257 631.499 554.199 624.279 549.863 C 621.759 578.171 622.289 586.921 629.999 603.8 L 634.069 612.199"/>
      <path id="path38" style="fill-opacity: 1; fill-rule: evenodd; stroke: none; fill: rgb(255, 255, 255);" d="M 574.799 345.652 C 574.219 327.738 569.729 325.382 560.928 325.382 C 556.163 325.382 551.889 327.468 548.967 330.781 C 546.284 328.718 543.92 329.136 540.268 329.136 C 531.463 329.136 525.78 336.273 525.78 345.074 C 525.78 351.675 528.311 356.371 534.034 358.789 C 533.643 360.171 533.432 361.195 533.432 362.699 C 533.432 371.5 540.569 378.636 549.37 378.636 C 552.35 378.636 555.139 377.816 557.526 376.39 C 559.483 375.414 570.459 376.281 571.619 385.234 C 572.489 394.769 592.249 466.355 641.359 473.289 C 646.559 474.445 644.829 470.402 642.519 468.089 C 646.439 472.015 600.339 435.289 603.979 394.335 C 609.759 397.804 626.729 403.656 634.249 406.546 C 635.979 419.835 676.109 479.933 724.719 481.562 C 729.339 481.562 728.189 478.089 724.719 475.781 C 721.249 473.472 678.999 451.222 673.719 417.164 C 679.499 418.898 708.289 424.675 711.179 425.253 C 713.489 433.921 743.999 471.988 779.479 471.23 C 783.519 471.23 778.179 465.031 780.049 466.609 C 767.119 455.738 743.109 442.191 739.849 427.347 C 745.629 427.925 765.429 426.48 769.469 425.328 C 773.519 430.527 796.189 445.441 825.449 441.578 C 829.499 441.578 828.439 437.71 825.449 436.378 C 821.479 434.609 802.879 428.722 799.989 416.585 C 831.589 397.949 843.979 378.41 846.869 359.917 C 847.449 355.296 844.559 355.296 841.089 358.183 C 837.619 361.07 804.129 393.41 759.279 395.82 C 719.629 397.949 633.669 376.82 574.799 345.652"/>
      <path id="path40" style="fill-opacity: 1; fill-rule: evenodd; stroke: none; fill: rgb(255, 255, 255);" d="M 558.999 222.105 C 558.6 209.855 552.823 207.339 546.803 207.339 C 543.545 207.339 540.62 208.765 538.624 211.035 C 536.788 209.621 535.167 209.91 532.67 209.91 C 526.651 209.91 522.76 214.789 522.76 220.808 C 522.76 225.324 524.495 228.535 528.405 230.191 C 528.139 231.132 527.999 231.835 527.999 232.863 C 527.999 238.882 532.877 243.765 538.893 243.765 C 540.936 243.765 542.846 243.203 544.475 242.23 C 545.815 241.558 553.327 242.152 554.116 248.277 C 554.706 254.8 557.999 304.949 588.279 310.316 C 591.829 311.101 590.649 308.335 589.069 306.757 C 591.749 309.445 571.089 285.535 576.249 255.859 C 580.199 258.226 587.749 260.878 592.889 262.855 C 594.069 271.945 605.269 313.957 638.519 315.07 C 641.679 315.07 640.889 312.695 638.519 311.113 C 636.149 309.535 622.139 294.765 618.529 271.472 C 623.019 273.796 634.299 275.601 638.739 277.003 C 640.319 282.933 664.349 315.292 688.609 314.773 C 691.379 314.773 687.729 310.531 689.009 311.613 C 680.169 304.179 668.249 292.203 666.029 282.05 C 669.979 282.445 679.449 282.812 682.219 282.023 C 684.989 285.578 695.089 298.039 715.089 295.394 C 717.859 295.394 717.139 292.75 715.089 291.835 C 712.379 290.628 705.069 285.699 703.099 277.394 C 726.399 266.121 736.349 256.253 738.319 243.601 C 738.719 240.441 736.739 240.441 734.369 242.417 C 731.999 244.39 710.899 258.835 680.219 260.484 C 653.089 261.941 599.989 247.16 558.999 222.105"/>
      <path id="path42" style="fill-opacity: 1; fill-rule: evenodd; stroke: none; fill: rgb(255, 255, 255);" d="M 267.26 871.535 C 269.514 878.308 276.741 886.429 277.643 890.496 C 278.545 894.558 277.19 897.718 279.901 901.785 C 282.608 905.843 290.284 913.523 292.991 916.23 C 295.698 918.937 305.182 923 310.151 912.167 C 315.116 901.328 323.69 877.402 340.846 870.179 C 334.077 866.57 317.823 860.699 309.245 858.89 C 300.667 857.085 293.897 855.734 297.506 834.515 C 301.12 813.296 302.022 804.265 300.667 797.496 C 299.315 790.722 298.862 776.277 311.506 764.988 L 322.792 749.187 C 327.303 745.125 338.139 740.609 339.042 749.64 C 339.944 758.667 342.651 767.695 333.624 768.601 C 330.463 769.05 321.885 776.277 322.792 784.402 C 323.69 792.527 321.436 799.3 317.823 806.07 C 314.209 812.843 312.858 820.515 314.663 827.292 C 316.467 834.062 321.436 838.125 332.721 835.871 C 341.752 832.707 383.288 821.425 395.928 835.414 C 404.502 829.097 455.518 810.136 485.319 813.296 C 490.733 803.816 502.022 783.046 509.245 777.179 C 515.116 771.761 517.37 754.605 507.44 745.574 C 501.573 741.062 486.217 725.261 473.581 721.652 C 460.94 718.035 455.971 715.781 450.104 709.91 C 444.233 704.042 440.624 704.042 437.01 696.367 C 433.397 688.691 425.272 675.148 438.366 675.148 C 451.456 675.148 455.069 681.464 455.971 685.082 C 456.874 688.691 455.971 696.367 460.94 697.718 C 465.905 699.074 481.256 699.976 491.639 712.621 C 502.022 725.261 522.788 732.035 530.917 733.386 C 539.038 734.742 539.944 742.867 539.038 746.929 C 538.139 750.996 537.686 761.378 542.651 766.792 C 549.874 764.988 572.899 760.023 583.739 745.125 C 585.539 741.062 585.989 738.804 587.799 736.093 C 584.639 730.679 578.319 725.71 576.059 720.296 C 573.799 714.875 571.089 705.847 560.709 697.718 C 550.327 689.593 541.295 684.628 536.331 677.406 C 531.366 670.179 528.206 662.503 529.108 652.574 C 530.01 642.644 532.717 647.605 537.233 647.605 C 541.749 647.605 552.131 652.574 552.584 659.347 C 553.034 666.117 549.874 669.281 559.354 673.339 C 568.839 677.406 585.539 690.949 589.159 699.527 C 592.769 708.105 603.599 724.808 612.179 729.773 C 620.749 734.742 618.949 741.964 614.889 749.187 C 610.819 756.41 596.829 775.824 599.539 788.464 C 602.249 801.105 617.139 808.781 621.659 828.191 C 626.179 847.609 623.459 856.636 620.749 863.406 C 628.429 865.664 632.939 863.859 642.879 859.347 C 652.809 854.832 675.379 855.734 678.089 862.054 C 680.799 868.375 679.899 881.015 678.089 883.722 C 684.409 889.14 688.929 900.878 685.319 906.296 C 681.699 911.714 679.899 918.937 681.699 926.16 C 675.379 927.066 668.609 932.48 673.119 936.542 C 677.639 940.605 686.669 950.089 682.609 962.277 C 683.959 969.957 684.409 979.437 671.319 978.977 C 670.869 983.947 666.809 1000.197 646.489 985.307 C 643.329 983.047 639.719 988.007 644.229 989.367 C 648.749 990.717 672.219 998.397 675.839 1006.517 C 679.439 1014.647 678.089 1018.707 676.739 1021.867 C 678.549 1025.477 680.349 1032.707 678.549 1035.417 C 676.739 1038.127 669.519 1037.667 664.549 1025.477 C 659.579 1013.297 660.939 1013.297 647.849 1011.037 C 634.749 1008.777 624.819 1011.037 616.239 996.587 C 613.529 992.977 612.179 988.917 605.859 985.307 C 599.539 981.687 595.929 975.817 595.019 970.857 C 594.119 965.887 598.629 956.859 597.729 950.539 C 596.829 944.218 593.219 930.675 609.919 916.23 C 618.049 907.199 630.239 895.46 621.209 886.429 C 612.179 877.402 604.049 886.882 597.279 891.398 C 590.509 895.914 568.389 902.683 553.94 901.785 C 539.491 900.878 492.088 912.617 480.803 922.097 C 469.518 931.578 476.417 936.382 482.155 939.253 C 486.217 941.058 488.928 942.867 491.186 947.378 C 493.444 951.894 497.057 952.796 501.116 952.796 C 505.182 952.796 509.245 953.699 512.854 962.277 C 516.467 970.857 520.081 967.697 524.143 968.597 C 528.206 969.497 530.917 978.077 523.694 980.787 C 516.467 983.497 512.405 986.207 512.854 988.917 C 513.311 991.617 518.272 997.487 525.049 997.937 C 531.815 998.397 532.268 1002.907 531.815 1006.517 C 531.366 1010.137 531.815 1012.387 536.331 1014.647 C 540.846 1016.897 540.393 1022.317 532.717 1024.577 C 525.049 1026.837 513.76 1029.547 513.76 1033.157 C 513.76 1036.767 518.725 1043.087 523.694 1044.897 C 528.655 1046.707 530.917 1054.377 519.627 1053.927 C 508.342 1053.477 502.022 1052.117 499.764 1059.337 C 497.506 1066.567 497.057 1070.627 508.795 1075.137 C 513.76 1076.497 515.116 1083.267 506.084 1082.817 C 497.057 1082.367 486.67 1077.847 483.51 1081.007 C 480.35 1084.167 481.256 1086.877 483.057 1088.237 C 484.866 1089.587 485.319 1094.107 480.803 1094.107 C 476.288 1094.107 458.682 1087.327 454.167 1092.297 C 449.651 1097.267 442.428 1099.977 436.557 1096.367 C 430.69 1092.747 430.69 1087.327 433.85 1084.167 C 437.01 1081.007 432.948 1076.047 429.334 1079.207 C 425.725 1082.367 427.077 1084.627 427.077 1085.977 C 427.077 1087.327 424.37 1091.847 421.209 1093.647 C 418.049 1095.457 418.049 1100.427 418.952 1103.587 C 419.854 1106.747 416.241 1109.907 410.827 1106.747 C 405.409 1103.587 400.444 1098.167 403.151 1090.037 C 397.28 1089.587 382.381 1085.977 381.932 1081.467 C 381.483 1076.947 383.737 1071.977 382.834 1070.177 C 381.932 1068.367 376.967 1068.367 374.256 1066.567 C 366.581 1058.887 353.491 1051.667 350.331 1048.507 C 347.167 1045.347 344.913 1042.187 340.846 1037.217 C 336.784 1032.707 336.424 1027.527 338.139 1025.027 C 343.104 1017.807 347.167 1022.777 349.877 1018.707 C 352.584 1014.647 352.584 1013.737 352.135 1011.487 C 351.682 1009.227 357.1 1004.267 365.229 1011.037 C 373.354 1017.807 379.221 1025.027 385.542 1017.357 C 391.866 1009.677 385.995 1005.167 383.288 1000.197 C 377.87 994.777 365.229 978.077 359.358 973.117 C 353.491 968.147 348.975 956.406 346.717 945.574 C 344.459 934.738 341.752 932.48 339.495 929.773 C 328.659 933.835 316.467 938.8 309.698 944.218 C 305.182 947.828 295.252 952.343 288.928 943.312 C 285.768 939.703 269.514 917.582 265.452 908.101 C 261.389 898.621 255.069 902.234 255.069 884.175 C 255.069 877.855 250.104 875.144 247.393 865.214 C 246.944 862.507 239.717 845.8 246.944 842.64 C 254.167 839.48 262.745 843.542 264.549 848.058 C 266.358 852.57 266.807 866.57 267.26 871.535"/>
      <path id="path44" style="fill-opacity: 1; fill-rule: evenodd; stroke: none;" d="M 196.831 1267.467 L 453.264 1267.467 L 453.264 1623.027 C 310.135 1620.967 115.51 1613.147 -204.345 1529.357 L -154.076 871.66 L 196.831 871.734 L 196.803 993.507 C 186.987 1001.247 171.858 1013.727 126.741 1013.697 C 100.053 1013.677 24.374 988.457 -19.666 934.511 C -20.275 915.621 -31.107 908.562 -40.392 908.562 C -45.412 908.562 -49.919 910.765 -53.001 914.257 C -55.837 912.082 -59.087 911 -62.939 911 C -72.224 911 -79.748 918.527 -79.748 927.808 C -79.748 934.769 -74.787 941.246 -68.755 943.796 C -69.169 945.253 -69.384 946.332 -69.384 947.921 C -69.384 957.203 -61.865 964.727 -52.58 964.727 C -49.435 964.727 -46.49 963.863 -43.978 962.363 C -41.912 961.328 -35.185 956.769 -33.966 966.217 C -33.052 976.277 -34.318 1070.627 16.131 1084.917 C 21.62 1086.137 19.788 1081.867 17.35 1079.427 C 14.913 1076.987 -7.388 1038.457 -4.412 989.837 C 1.686 993.497 14.893 1003.407 22.815 1006.457 C 25.252 1016.817 42.725 1095.347 84.44 1096.157 C 89.315 1096.157 88.1 1092.497 84.44 1090.067 C 80.784 1087.627 62.612 1066.137 58.956 1027.737 C 65.049 1029.567 80.264 1032.167 83.311 1032.777 C 85.749 1041.917 103.741 1094.537 137.87 1097.577 C 142.139 1097.577 140.307 1093.177 138.479 1091.347 C 136.651 1089.527 118.573 1064.417 114.979 1039.907 C 121.073 1040.517 135.206 1040.067 139.475 1038.847 C 143.135 1043.557 172.065 1075.307 196.823 1085.687 L 196.901 1192.677 C 192.151 1196.977 184.733 1201.577 161.979 1201.647 C 126.393 1201.747 66.901 1187.017 -15.173 1133.387 C -15.986 1108.187 -30.427 1098.777 -42.806 1098.777 C -49.501 1098.777 -55.513 1101.727 -59.623 1106.377 C -63.4 1103.477 -67.736 1102.037 -72.873 1102.037 C -85.248 1102.037 -95.283 1112.067 -95.283 1124.437 C -95.283 1133.727 -88.669 1142.367 -80.626 1145.767 C -81.173 1147.707 -81.466 1149.147 -81.466 1151.257 C -81.466 1163.637 -71.431 1173.667 -59.056 1173.667 C -54.865 1173.667 -50.943 1172.517 -47.583 1170.517 C -44.833 1169.137 -33.458 1164.257 -31.833 1176.857 C -30.615 1190.267 -10.029 1302.497 59.045 1312.247 C 66.358 1313.877 63.92 1308.187 60.67 1304.937 C 57.42 1301.687 3.604 1257.537 7.577 1192.707 C 15.706 1197.577 40.538 1209.587 51.096 1213.647 C 54.35 1227.467 84.87 1311.707 140.487 1312.797 C 146.987 1312.797 145.362 1307.917 140.487 1304.667 C 135.612 1301.417 101.752 1277.577 96.877 1226.387 C 105.002 1228.817 130.104 1234.687 134.167 1235.507 C 137.417 1247.687 158.999 1296.177 204.506 1300.237 C 210.194 1300.237 207.756 1294.377 205.319 1291.937 C 202.877 1289.497 178.772 1272.887 173.987 1240.197 C 178.612 1240.657 188.463 1238.907 196.971 1237.177 L 196.831 1267.467"/>
      <path id="path46" style="fill-opacity: 1; fill-rule: evenodd; stroke: none; fill: rgb(255, 255, 255);" d="M -25.287 1331.577 C -26.193 1303.577 -42.236 1293.137 -55.99 1293.137 C -63.431 1293.137 -70.111 1296.397 -74.673 1301.567 C -78.873 1298.347 -83.693 1296.737 -89.396 1296.737 C -103.15 1296.737 -114.298 1307.887 -114.298 1321.647 C -114.298 1331.957 -106.951 1341.557 -98.013 1345.327 C -98.619 1347.487 -98.947 1349.087 -98.947 1351.437 C -98.947 1365.187 -87.798 1376.337 -74.044 1376.337 C -69.388 1376.337 -65.029 1375.067 -61.302 1372.827 C -58.248 1371.307 -45.603 1365.887 -43.802 1379.877 C -42.447 1394.777 -22.58 1527.507 54.17 1538.347 C 62.295 1540.147 59.584 1533.827 55.975 1530.217 C 52.362 1526.607 -7.232 1478.747 -0.009 1397.487 C 9.022 1402.907 40.624 1418.257 52.362 1422.767 C 55.073 1443.537 84.87 1540.147 151.686 1541.957 C 158.909 1541.957 157.1 1536.537 151.686 1532.927 C 146.268 1529.317 105.635 1496.807 100.221 1439.927 C 109.249 1442.637 138.143 1447.147 142.655 1448.057 C 146.268 1461.597 174.256 1527.507 224.823 1532.027 C 231.143 1532.027 228.432 1527.507 225.725 1524.797 C 223.014 1522.097 186.901 1491.397 186.901 1455.277 C 195.928 1456.177 221.209 1456.177 227.53 1454.377 C 233.85 1462.497 260.936 1492.297 299.764 1495.007 C 306.084 1495.007 303.377 1490.487 299.764 1486.877 C 296.151 1483.267 272.674 1462.497 268.163 1443.537 C 281.706 1436.317 320.534 1410.127 325.045 1381.237 C 325.952 1374.007 321.436 1374.007 316.018 1378.527 C 310.6 1383.037 269.065 1416.447 216.694 1416.447 C 164.327 1416.447 65.905 1391.167 -25.287 1331.577"/>
      <path id="path48" style="fill-opacity: 1; fill-rule: evenodd; stroke: none; fill: rgb(255, 255, 255);" d="M 368.952 1700.647 L 368.913 1679.797 L 337.713 1678.287 L 337.729 1696.617 C 337.69 1714.867 327.682 1726.287 310.713 1725.107 L 224.51 1719.497 L 225.362 1669.647 L 194.307 1668.177 L 190.897 1792.827 L 320.315 1801.447 C 344.006 1803.357 364.827 1798.517 364.78 1766.037 C 364.764 1756.757 361.444 1747.327 356.44 1738.907 C 362.967 1733.827 369.065 1720.297 368.952 1700.647"/>
      <path id="path50" style="fill-opacity: 1; fill-rule: evenodd; stroke: none; fill: rgb(255, 255, 255);" d="M -184.205 1591.617 L -193.232 1717.127 L -64.564 1746.017 C -48.314 1749.627 -25.287 1747.367 -24.384 1718.477 C -23.482 1689.587 -28.9 1677.397 -49.216 1672.877 L -157.115 1648.507 L -153.052 1598.837 L -184.205 1591.617"/>
      <path id="path52" style="fill-opacity: 1; fill-rule: evenodd; stroke: none;" d="M -159.826 1695.907 L -158.919 1677.397 L -69.08 1697.257 C -61.408 1699.067 -60.052 1705.387 -60.501 1709.447 C -60.849 1712.587 -64.115 1717.127 -73.142 1715.317 C -82.173 1713.507 -159.826 1695.907 -159.826 1695.907"/>
      <path id="path54" style="fill-opacity: 1; fill-rule: evenodd; stroke: none; fill: rgb(255, 255, 255);" d="M -4.97 1732.027 C -4.97 1743.757 -5.423 1760.917 26.627 1765.887 L 130.917 1783.037 C 143.557 1785.297 172.002 1776.717 172.002 1753.237 L 173.358 1692.747 C 173.807 1680.097 172.905 1663.397 139.042 1658.437 L 42.428 1643.087 C 25.276 1639.927 -2.716 1642.637 -3.619 1675.137 L -4.97 1732.027"/>
      <path id="path56" style="fill-opacity: 1; fill-rule: evenodd; stroke: none;" d="M 26.627 1718.027 C 26.627 1718.027 26.627 1708.547 26.627 1718.027 C 26.627 1727.507 26.178 1736.537 42.881 1739.697 L 122.792 1753.237 C 131.37 1754.597 140.397 1748.277 140.397 1739.697 L 141.303 1702.677 C 141.303 1696.807 138.592 1687.327 125.499 1685.067 L 46.495 1672.427 C 35.659 1670.627 28.436 1670.167 27.534 1684.167 L 26.627 1718.027"/>
      <path id="path58" style="fill-opacity: 1; fill-rule: evenodd; stroke: none; fill: rgb(255, 255, 255);" d="M 435.202 1755.477 C 429.209 1755.477 424.35 1760.337 424.35 1766.327 C 424.35 1772.327 429.209 1777.187 435.202 1777.187 L 562.514 1777.187 L 562.514 1804.257 L 420.303 1804.257 C 413.081 1804.257 388.706 1802.677 388.932 1765.887 C 389.155 1729.087 414.889 1728.407 420.303 1728.407 L 520.081 1728.427 C 526.073 1728.427 530.932 1723.567 530.932 1717.577 C 530.932 1711.577 526.073 1707.627 520.081 1707.627 L 392.764 1707.627 L 392.764 1680.557 L 534.522 1680.557 C 543.553 1680.557 567.259 1679.207 567.259 1718.257 C 567.259 1757.307 540.62 1755.497 534.522 1755.497 L 435.202 1755.477"/>
      <path id="path60" style="fill-opacity: 1; fill-rule: evenodd; stroke: none; fill: rgb(255, 255, 255);" d="M 785.539 1788.907 L 777.869 1660.687 L 807.659 1656.627 L 811.269 1711.707 L 916.019 1691.837 L 912.399 1639.477 L 942.199 1634.057 L 949.869 1761.817 L 920.529 1767.237 L 917.369 1717.577 L 812.629 1737.437 L 815.339 1784.397 L 785.539 1788.907"/>
      <path id="path62" style="fill-opacity: 1; fill-rule: evenodd; stroke: none; fill: rgb(255, 255, 255);" d="M 970.189 1629.987 L 977.409 1756.397 L 1120.979 1726.147 L 1119.169 1700.417 L 1005.859 1724.347 L 1004.949 1700.867 L 1117.369 1676.937 L 1115.559 1651.207 L 1003.139 1675.137 L 1001.789 1649.397 L 1113.759 1625.477 L 1111.499 1599.747 L 970.189 1629.987"/>
      <path id="path64" style="fill-opacity: 1; fill-rule: evenodd; stroke: none; fill: rgb(255, 255, 255);" d="M 757.099 1763.177 L 758.449 1791.167 L 626.179 1801.547 C 614.889 1802.457 593.219 1803.357 591.409 1766.327 C 589.609 1729.317 588.699 1712.607 588.699 1712.607 C 588.249 1699.967 595.929 1678.747 619.859 1676.937 L 751.679 1667.007 L 753.029 1695.007 L 642.879 1703.127 C 632.499 1703.577 621.209 1706.737 622.109 1725.707 L 623.019 1752.787 C 623.459 1763.627 627.079 1773.557 644.229 1772.207 L 757.099 1763.177"/>
      <path id="path66" style="fill-opacity: 1; fill-rule: evenodd; stroke: none;" d="M 316.108 1752.387 L 223.655 1747.217 L 223.256 1767.017 L 316.897 1771.937 C 324.143 1771.747 327.139 1769.157 327.448 1762.557 C 327.756 1755.947 322.518 1752.877 316.108 1752.387"/>
      <path id="path68" style="fill-opacity: 1; fill-rule: evenodd; stroke: none; fill: rgb(255, 255, 255);" d="M 259.081 1158.937 C 260.436 1151.257 263.959 1148.097 271.092 1148.097 C 277.053 1148.097 281.206 1151.257 281.206 1155.777 C 281.206 1158.217 279.85 1159.837 276.42 1161.467 L 259.893 1169.137 C 252.67 1172.477 249.42 1177.447 249.42 1185.487 C 249.42 1197.487 257.276 1205.437 269.194 1205.437 C 282.288 1205.437 289.784 1197.947 290.323 1184.217 L 279.491 1184.217 C 278.405 1191.447 275.424 1194.417 269.377 1194.417 C 263.959 1194.417 260.077 1191.257 260.077 1186.837 C 260.077 1184.757 261.432 1183.047 263.87 1181.867 L 280.846 1174.017 C 288.518 1170.497 291.862 1166.337 291.862 1157.487 C 291.862 1151.257 289.514 1145.757 285.088 1141.777 C 281.385 1138.437 277.233 1137.087 270.733 1137.087 C 261.702 1137.087 255.292 1140.237 251.588 1146.567 C 249.51 1149.907 248.788 1152.887 248.428 1158.937 L 259.081 1158.937"/>
      <path id="path70" style="fill-opacity: 1; fill-rule: evenodd; stroke: none; fill: rgb(255, 255, 255);" d="M 339.163 1204.177 L 339.163 1192.257 L 323.182 1192.257 L 323.182 1138.347 L 312.073 1138.347 L 312.073 1192.257 L 295.729 1192.257 L 295.729 1204.177 L 339.163 1204.177"/>
      <path id="path72" style="fill-opacity: 1; fill-rule: evenodd; stroke: none; fill: rgb(255, 255, 255);" d="M 390.358 1204.177 L 390.358 1163.547 C 390.358 1148.547 385.932 1137.087 368.596 1137.087 C 351.35 1137.087 346.834 1148.367 346.834 1163.547 L 346.834 1204.177 L 357.944 1204.177 L 357.944 1163.817 C 357.944 1153.157 360.92 1149.007 368.417 1149.007 C 376.362 1149.007 379.249 1152.977 379.249 1163.817 L 379.249 1204.177 L 390.358 1204.177"/>
      <path id="path74" style="fill-opacity: 1; fill-rule: evenodd; stroke: none; fill: rgb(255, 255, 255);" d="M 439.635 1204.177 L 439.635 1192.257 L 423.655 1192.257 L 423.655 1138.347 L 412.549 1138.347 L 412.549 1192.257 L 396.206 1192.257 L 396.206 1204.177 L 439.635 1204.177"/>
      <path id="path76" style="fill-opacity: 1; fill-rule: evenodd; stroke: none; fill: rgb(255, 255, 255);" d="M 514.217 1174.017 L 536.612 1174.017 L 536.612 1138.347 L 528.932 1138.347 L 527.85 1146.657 C 523.608 1140.067 518.459 1137.087 511.69 1137.087 C 497.151 1137.087 486.858 1150.987 486.858 1170.677 C 486.858 1191.627 497.334 1205.437 513.315 1205.437 C 526.319 1205.437 534.987 1197.227 536.612 1183.227 L 525.233 1183.227 C 523.065 1190.357 519.456 1193.517 513.405 1193.517 C 504.104 1193.517 498.327 1184.937 498.327 1171.217 C 498.327 1157.757 504.284 1149.007 513.405 1149.007 C 520.358 1149.007 524.963 1153.877 526.409 1162.727 L 514.217 1162.727 L 514.217 1174.017"/>
      <path id="path78" style="fill-opacity: 1; fill-rule: evenodd; stroke: none; fill: rgb(255, 255, 255);" d="M 562.065 1204.177 L 574.619 1204.177 L 593.669 1138.347 L 581.569 1138.347 L 577.869 1152.167 L 558.272 1152.167 L 554.479 1138.347 L 542.831 1138.347 L 562.065 1204.177"/>
      <path id="path80" style="fill-opacity: 1; fill-rule: evenodd; stroke: none; fill: rgb(255, 255, 255);" d="M 623.629 1204.177 C 631.299 1204.177 634.189 1203.367 637.439 1200.387 C 641.059 1196.957 643.039 1191.717 643.039 1185.217 C 643.039 1177.627 641.149 1173.747 635.369 1169.957 C 640.599 1167.157 641.229 1165.347 641.689 1152.617 C 642.049 1141.957 642.319 1140.327 644.029 1138.347 L 631.759 1138.347 C 630.669 1141.957 630.489 1142.867 630.399 1148.727 C 630.129 1158.397 631.479 1164.357 621.189 1164.357 L 610.989 1164.357 L 610.989 1138.347 L 599.879 1138.347 L 599.879 1204.177 L 623.629 1204.177"/>
      <path id="path82" style="fill-opacity: 1; fill-rule: evenodd; stroke: none; fill: rgb(255, 255, 255);" d="M 692.689 1204.177 L 692.689 1192.257 L 676.699 1192.257 L 676.699 1138.347 L 665.599 1138.347 L 665.599 1192.257 L 649.249 1192.257 L 649.249 1204.177 L 692.689 1204.177"/>
      <path id="path84" style="fill-opacity: 1; fill-rule: evenodd; stroke: none; fill: rgb(255, 255, 255);" d="M 488.397 1204.177 L 488.397 1192.257 L 472.413 1192.257 L 472.413 1138.347 L 461.307 1138.347 L 461.307 1192.257 L 444.963 1192.257 L 444.963 1204.177 L 488.397 1204.177"/>
      <path id="path86" style="fill-opacity: 1; fill-rule: evenodd; stroke: none;" d="M 574.889 1163.457 L 568.119 1189.097 L 561.342 1163.457 L 574.889 1163.457"/>
      <path id="path88" style="fill-opacity: 1; fill-rule: evenodd; stroke: none;" d="M 610.989 1175.457 L 621.549 1175.457 C 629.139 1175.457 631.569 1177.537 631.569 1183.947 C 631.569 1190.357 629.229 1192.257 621.549 1192.257 L 610.989 1192.257 L 610.989 1175.457"/>
      <path id="path90" style="fill:#231f20;fill-opacity:1;fill-rule:evenodd;stroke:none" d="M 1256.199 1735.047 C 1281.369 1735.047 1301.779 1714.637 1301.779 1689.467 C 1301.779 1664.027 1281.369 1643.617 1256.199 1643.617 C 1230.889 1643.617 1210.479 1664.027 1210.479 1689.467 C 1210.479 1714.637 1230.889 1735.047 1256.199 1735.047 L 1256.199 1741.307 C 1227.359 1741.307 1204.089 1718.037 1204.089 1689.467 C 1204.089 1660.617 1227.359 1637.357 1256.199 1637.357 C 1284.909 1637.357 1308.039 1660.617 1308.039 1689.467 C 1308.039 1718.037 1284.909 1741.307 1256.199 1741.307 L 1256.199 1735.047"/>
      <path id="path92" style="fill:#231f20;fill-opacity:1;fill-rule:evenodd;stroke:none" d="M 1243.949 1713.277 L 1260.549 1713.277 C 1267.769 1713.277 1275.659 1712.187 1275.659 1703.207 C 1275.659 1691.367 1262.999 1692.727 1254.839 1692.727 L 1243.949 1692.727 L 1243.949 1687.147 L 1257.019 1687.147 L 1273.619 1660.347 L 1282.049 1660.347 L 1264.499 1687.147 C 1274.839 1687.417 1282.869 1691.637 1282.869 1703.067 C 1282.869 1707.967 1280.689 1713.137 1276.339 1715.587 C 1271.979 1718.167 1267.089 1718.437 1262.189 1718.437 L 1236.879 1718.437 L 1236.879 1660.347 L 1243.949 1660.347 L 1243.949 1713.277"/>
    </g>
  </g>
</svg>