<?xml version="1.0" encoding="utf-8"?>
<svg viewBox="0 0 500 500" xmlns="http://www.w3.org/2000/svg">
  <g transform="matrix(0.340468, 0, 0, 0.340468, 8.497207, 118.89106)" style="">
    <g>
      <path style="stroke: none; fill: rgb(255, 255, 255);" d="M 1150.17 523.058C 1150.17 523.058 1150.17 614.132 1150.17 643.038C 1151.37 671.719 1168.38 687.673 1197.5 688.812C 1230.75 690.125 1264.77 690.244 1300.93 688.76C 1328.59 687.634 1344.75 670.442 1346.23 642.924C 1346.23 613.5 1346.23 523.058 1346.23 523.058L 1302.56 523.058C 1302.56 523.058 1302.56 623.511 1302.56 633.439C 1302.34 643.611 1296.12 647.782 1288.05 648.538C 1262 650.538 1234.03 650.538 1207 648.538C 1199.67 647.887 1193.89 640.863 1193.58 633.088C 1193.58 625.512 1193.58 523.058 1193.58 523.058L 1150.17 523.058z"/>
      <path style="stroke: none; fill: rgb(255, 255, 255);" d="M 114.112 523.021C 91.5148 524.316 67.4507 536.264 64.1707 564.157C 63.4601 570.105 63.4601 573.912 64.0349 578.644C 67.5692 609.317 90.0048 616.751 107.905 618.284C 126.398 619.895 201.887 623.942 211.1 624.681C 223.483 625.702 225.232 630.584 225.232 637.189C 225.232 644.599 221.803 648.952 211.1 649.572C 187.833 650.972 144.137 650.538 122.199 649.832C 114.456 649.559 108.887 647.517 108.612 638.214L 108.504 630.204L 64.7606 630.204C 64.7606 630.204 64.6852 634.032 64.7025 635.048C 64.8984 669.481 76.6355 685.416 109.436 687.987C 141.115 690.42 188.981 690.067 224.426 687.815C 255.442 685.84 266.847 664.382 267.985 639.704C 268.077 638.382 267.985 635.922 267.985 633.868C 267.022 604.672 250.032 590.415 226.703 588.206C 211.606 586.888 130.934 583.218 119.599 582.236C 110.948 581.472 107.438 577.093 107.438 569.892C 107.438 564.06 111.106 559.486 118.854 558.918C 144.699 557.19 189.429 557.558 207.092 558.603C 215.788 559.165 219.236 563.453 219.699 568.494L 219.699 576.15L 263.455 576.15C 263.455 576.15 263.455 574.139 263.455 569.345C 262.646 536.46 246.772 523.924 216.568 522.687C 183.737 521.389 148.102 521.019 114.112 523.021z"/>
      <path style="stroke: none; fill: rgb(255, 255, 255);" d="M 503.671 689.38L 648.636 689.38C 682.62 688.478 697.792 670.563 697.792 638.382C 697.792 615.756 686.972 603.528 678.806 601.056C 685.604 598.077 693.446 588.104 693.446 568.628C 693.446 539.444 674.931 524.137 647.482 523.058C 619.288 523.021 503.671 523.058 503.671 523.058L 503.671 689.38L 503.671 689.38zM 636.404 559.565L 636.404 559.565C 644.42 560.145 651.287 563.483 651.287 572.407C 651.287 581.549 645.066 586.261 635.622 586.81L 547.371 586.81L 547.371 559.565C 547.371 559.565 636.191 559.565 636.404 559.565L 636.404 559.565zM 636.404 621.329L 636.404 621.329C 643.767 621.666 653.803 624.788 653.803 636.812C 653.803 649.304 645.514 652.345 635.424 652.74L 547.371 652.74L 547.371 621.329L 636.404 621.329z"/>
      <path style="stroke: none; fill: rgb(255, 255, 255);" d="M 284.408 523.058C 284.408 523.058 284.408 614.132 284.408 643.038C 285.611 671.719 302.612 687.673 331.76 688.812C 365.005 690.125 399.042 690.244 435.228 688.76C 462.828 687.634 478.944 670.442 480.492 642.924C 480.492 613.5 480.492 523.058 480.492 523.058L 436.855 523.058C 436.855 523.058 436.855 623.511 436.855 633.439C 436.581 643.611 430.336 647.782 422.266 648.538C 396.232 650.538 368.25 650.538 341.273 648.538C 333.903 647.887 328.076 640.863 327.809 633.088C 327.809 625.512 327.809 523.058 327.809 523.058L 284.408 523.058z"/>
      <path style="stroke: none; fill: rgb(255, 255, 255);" d="M 936.81 523.021L 936.81 689.38L 980.297 689.322L 980.297 629.769L 1070.58 629.769C 1080.89 629.965 1086.2 636.773 1086.8 645.807C 1087.91 662.788 1087.46 689.262 1087.46 689.262L 1131.61 689.38C 1131.61 689.38 1131.44 665.321 1130.88 647.42C 1130.32 628.292 1120.59 613.379 1111.84 610.627C 1119.08 606.615 1129.14 596.187 1129.14 573.189C 1129.14 538.947 1111.12 524.393 1082.44 523.021L 936.81 523.021L 936.81 523.021zM 1070.58 559.565L 1070.58 559.565C 1080.86 560.394 1086.3 564.962 1086.3 575.465C 1086.3 585.436 1080.98 591.05 1070.58 591.559L 980.297 591.559L 980.297 559.602L 1070.58 559.565z"/>
      <path style="stroke: none; fill: rgb(255, 255, 255);" d="M 760.823 659.807L 859.785 659.807L 874.968 689.322L 925.984 689.322L 835.355 523.021L 832.461 523.021L 789.422 523.021L 786.497 523.021L 695.763 689.322L 745.366 689.322L 760.823 659.807L 760.823 659.807zM 841.67 624.593L 779.266 624.593L 810.748 564.48L 841.67 624.593z"/>
    </g>
    <path style="stroke: none; fill: rgb(255, 255, 255);" d="M 230.476 199.237C 230.476 57.248 450.665 -57.7502 709.497 -57.7502C 968.315 -57.7502 1184.48 57.248 1184.48 199.237C 1184.48 341.14 968.315 456.223 709.497 456.223C 447.145 456.223 230.476 341.14 230.476 199.237L 230.476 199.237zM 709.72 429.056L 709.72 429.056C 949.371 429.056 1149.47 326.144 1149.47 199.237C 1149.47 71.3356 947.226 -30.5642 709.72 -30.5642C 470.169 -30.5642 265.523 71.3356 265.523 199.237C 265.523 326.144 461.955 429.056 709.72 429.056L 709.72 429.056zM 833.593 338.239L 833.593 338.239C 840.685 339.318 865.654 343 875.875 344.869C 884.46 346.69 888.707 349.378 892.883 359.565C 894.272 362.909 896.355 370.143 897.477 374.319C 898.99 379.617 900.93 387.669 901.159 388.382C 901.42 389.348 902.371 390.418 904.05 390.418C 905.582 390.418 906.566 389.291 906.88 388.335C 907.375 387.165 909.577 378.97 911.003 374.076C 912.131 369.881 914.209 363.161 915.731 359.565C 918.237 353.611 921.491 347.161 931.773 345.173C 942.037 343.347 965.613 340.36 977.285 338.933C 986.127 337.973 1005.29 335.456 1007.52 335.242C 1009.88 334.886 1010.84 333.511 1010.84 331.999C 1010.84 330.306 1009.88 329.017 1007.4 328.784C 1003.78 328.489 986.127 326.663 977.285 325.583C 963.763 323.975 940.525 320.594 932.725 318.858C 924.544 317.022 920.611 314.696 916.916 307.11C 914.818 302.905 913.344 298.958 911.855 293.498C 911.003 290.116 907.66 279.016 907.204 277.199C 906.709 275.03 905.458 274.379 904.155 274.379C 902.718 274.379 901.539 274.859 900.93 277.284C 900.164 279.624 897.477 290.116 896.355 293.717C 895.037 297.774 893.91 301.821 891.622 306.934C 888.807 312.917 884.821 317.112 876.16 318.858C 862.929 321.502 839.124 325.274 833.508 326.144C 812.062 329.088 807.035 329.697 792.31 328.175C 781.038 327.143 755.788 323.195 739.07 320.594C 728.93 319.081 718.529 318.301 712.907 308.794C 709.597 303.125 707.775 297.612 705.559 290.597C 703.623 284.566 700.66 273.988 700.013 271.387C 699.319 269.309 698.482 268.138 696.669 268.138C 694.843 268.138 693.911 269.309 693.297 271.553C 692.518 273.86 689.307 285.056 687.757 290.378C 685.359 298.235 683.281 304.547 680.275 308.794C 674.563 317.112 669.179 318.163 655.358 320.503C 640.857 322.934 622.793 324.969 608.762 326.401C 596.406 327.837 588.625 328.655 584.092 329.173C 581.838 329.454 580.492 330.201 580.492 332.398C 580.492 334.624 581.838 335.456 584.092 335.718C 588.207 336.298 600.339 337.625 608.848 338.491C 623.107 340.013 635.987 341.273 655.358 344.346C 674.13 347.247 677.422 349.767 683.452 363.941C 686.487 371.008 687.614 376.197 688.827 381.705C 690.168 387.669 692.94 399.65 693.378 402.128C 693.55 403.94 694.591 405.442 696.541 405.442C 698.572 405.442 699.49 404.12 699.88 402.033C 700.327 399.26 703.219 386.604 704.565 381.705C 705.906 376.197 707.209 370.695 709.72 363.941C 715.751 348.64 720.645 346.995 738.937 344.189C 752.991 342.006 779.083 338.058 792.31 336.55C 807.035 335.157 812.928 335.157 833.593 338.239L 833.593 338.239zM 972.124 241.395L 972.124 241.395C 979.763 242.47 992.78 244.995 1007.4 248.282C 1017.13 250.531 1020.44 255.568 1022.63 261.765C 1024.89 267.834 1026.49 274.802 1028.36 282.14C 1030.04 288.385 1031.17 293.845 1031.3 294.844C 1031.78 296.751 1033.13 297.774 1034.48 297.774C 1035.94 297.774 1037.33 296.88 1037.76 295.011C 1038.07 293.674 1039.19 288.209 1040.75 282.031C 1042.45 275.377 1044.39 268 1046.48 261.68C 1048.47 255.777 1051.81 250.898 1060.39 248.786C 1068.58 246.941 1082.02 244.681 1092.99 243.064C 1102.53 241.609 1118.96 239.526 1121.25 239.179C 1123.64 238.817 1124.6 237.357 1124.6 235.987C 1124.6 234.546 1123.85 232.939 1121.25 232.677C 1118.87 232.292 1103.09 230.147 1092.86 228.644C 1080.34 226.78 1067.46 224.701 1060.39 223.103C 1055.1 221.838 1049.86 218.199 1047.48 213.12C 1044.69 207.36 1043.44 203.807 1041.45 197.448C 1040.2 192.735 1038.3 185.972 1037.75 184.093C 1037.2 182.058 1035.68 181.549 1034.48 181.549C 1033.26 181.549 1032 182.158 1031.39 184.222C 1030.73 186.609 1029.07 192.65 1027.58 197.525C 1025.5 204.801 1024.02 208.787 1021.74 213.12C 1019.22 218.023 1015.29 221.71 1007.4 223.388C 992.78 226.484 980.11 229.139 972.139 230.337C 955.05 232.939 946.893 234.151 920.972 230.508C 909.358 228.767 889.763 225.838 874.372 222.879C 865.877 221.186 858.249 218.803 853.997 210.437C 851.262 204.801 849.459 198.228 847.448 191.508C 846.149 187.242 843.633 178.6 842.763 175.309C 842.145 173.078 841.255 172.17 839.424 172.17C 837.612 172.17 836.713 173.078 836.09 175.309C 835.225 178.105 832.884 186.481 831.458 191.418C 829.503 197.967 827.51 204.887 824.804 210.309C 820.661 218.803 813.741 220.839 804.833 222.708C 792.049 225.391 771.669 227.559 753.477 229.467C 745.415 230.508 730.623 232.239 727.18 232.762C 725.202 232.939 724.122 233.975 724.122 235.887C 724.122 237.832 724.902 238.817 727.147 239.088C 730.314 239.573 747.702 241.519 753.357 242.175C 763.089 243.255 786.427 246.465 804.747 249.062C 817.318 250.898 824.081 255.777 827.767 270.564C 829.717 278.554 831.458 284.443 832.708 290.597C 833.836 295.633 835.619 303.643 836.09 305.222C 836.747 307.543 837.869 308.494 839.315 308.494C 840.789 308.494 842.145 307.804 842.763 305.117C 843.067 303.643 845.289 293.674 845.85 290.944C 847.191 285.118 848.912 277.945 850.877 270.478C 854.606 257.204 858.506 252.748 874.372 249.062C 886.814 246.161 909.686 243.255 920.754 241.694C 948.02 237.747 955.131 239.088 972.124 241.395L 972.124 241.395zM 1082.41 138.173L 1082.41 138.173C 1081.06 138.173 1061.35 135.491 1050.94 134.111C 1038.89 132.333 1023.93 130.644 1010.46 127.733C 1005.03 126.649 997.774 123.753 994.017 116.062C 991.377 110.654 989.903 105.071 986.692 94.4836C 985.727 91.4539 983.501 82.8691 982.959 80.7859C 982.317 78.4078 980.971 77.8799 979.763 77.8799C 978.54 77.8799 977.232 78.2748 976.457 80.7859C 975.844 82.9548 973.689 90.4122 972.6 94.2408C 969.271 105.456 967.435 111.582 965.233 116.162C 961.68 123.358 955.925 126.311 946.422 128.085C 937.062 129.645 917.938 132.333 898.818 134.815C 861.54 139.443 859.952 139.329 824.2 135.319C 813.465 134.192 785.1 130.558 775.745 129.274C 741.463 125.222 684.494 119.415 649.841 113.299C 631.045 109.846 614.227 105.803 603.34 79.0546C 596.097 61.0195 591.721 44.8962 587.674 30.295C 584.211 18.1857 580.316 1.65826 579.018 -3.86334C 578.371 -6.50775 577.286 -7.42114 575.546 -7.42114C 574.005 -7.42114 572.934 -6.57922 572.131 -3.86334C 570.709 1.55847 566.205 18.7614 562.895 30.2142C 558.714 44.3588 554.828 61.1955 547.461 79.0546C 538.029 101.632 526.063 108.576 501.512 113.432C 466.412 120.104 423.636 125.365 383.988 129.645C 364.503 131.724 308.086 137.912 305.741 138.173C 303.32 138.401 302.526 140.223 302.526 141.307C 302.526 142.52 303.32 144.266 305.741 144.527C 308.086 144.86 366.034 150.939 384.217 152.912C 425.3 157.345 463.359 162.115 499.786 168.441C 535.105 174.552 543.347 192.626 550.11 215.032C 555.399 232.762 562.509 263.815 564.973 275.939C 567.403 286.587 571.608 308.875 572.131 310.806C 572.649 313.231 573.738 314.22 575.465 314.22C 577.025 314.22 578.285 313.36 578.932 310.806C 579.379 308.68 583.659 285.784 585.828 275.853C 588.482 263.977 595.74 231.564 600.762 214.77C 609.723 185.216 618.489 174.9 649.841 169.444C 681.374 163.808 740.592 156.812 775.963 152.593C 784.848 151.5 805.266 149.759 824.2 147.462C 860.279 143.485 863.414 143.781 898.99 148.165C 917.719 150.411 930.556 152.213 945.642 154.763C 957.742 156.812 962.327 160.256 965.97 170.743C 968.961 179.123 971.263 188.298 972.823 194.585C 974.212 200.102 976.015 209.049 976.457 210.956C 977.023 213.258 978.588 213.691 979.501 213.691C 980.452 213.691 982.317 213.039 982.811 210.956C 983.315 208.616 984.999 200.102 986.35 194.585C 987.686 188.949 990.897 177.549 993.237 170.743C 996.666 161.117 1002.08 156.96 1011.12 155.091C 1021.16 152.912 1038.54 150.582 1051.12 148.722C 1060.75 147.366 1080.94 144.817 1082.41 144.603C 1084.41 144.437 1085.54 143.172 1085.54 141.307C 1085.54 139.614 1084.27 138.401 1082.41 138.173z"/>
  </g>
</svg>