<?xml version="1.0" encoding="utf-8"?>
<svg viewBox="0 0 500 500" xmlns="http://www.w3.org/2000/svg">
  <path d="M 250.809 83.541 C 113.908 83.541 2.912 155.345 2.912 243.893 C 2.912 332.476 113.91 404.319 250.809 404.319 C 387.709 404.319 498.705 332.515 498.705 243.893 C 498.705 155.277 387.707 83.541 250.809 83.541 Z M 250.809 335.478 C 230.446 335.478 213.831 295.373 212.789 244.908 C 225.038 245.984 237.777 246.57 250.809 246.57 C 263.84 246.57 276.579 245.984 288.828 244.908 C 287.786 295.341 271.171 335.478 250.809 335.478 Z M 215.297 204.837 C 220.837 169.162 234.649 143.848 250.809 143.848 C 266.968 143.848 280.782 169.162 286.32 204.837 C 274.95 205.847 263.091 206.401 250.809 206.401 C 238.527 206.401 226.667 205.847 215.297 204.837 Z M 250.809 106.74 C 224.224 106.74 201.549 146.553 193.175 202.133 C 142.775 194.283 107.589 176.363 107.589 155.545 C 107.589 127.462 171.705 104.689 250.811 104.689 C 329.914 104.689 394.033 127.462 394.033 155.545 C 394.033 176.363 358.848 194.281 308.447 202.133 C 300.074 146.553 277.399 106.74 250.814 106.74 L 250.809 106.74 Z M 38.46 237.902 C 38.46 210.732 48.919 185.222 67.131 163.328 C 66.936 164.86 66.805 166.423 66.805 167.987 C 66.805 202.228 118.151 231.419 189.793 242.17 C 189.727 244.646 189.727 247.155 189.727 249.663 C 189.727 313.486 207.613 367.535 232.34 385.882 C 123.689 379.334 38.46 315.576 38.46 237.912 L 38.46 237.902 Z M 269.289 385.872 C 294.017 367.53 311.903 313.48 311.903 249.653 C 311.903 247.112 311.87 244.635 311.837 242.16 C 383.447 231.409 434.825 202.25 434.825 167.977 C 434.825 166.413 434.694 164.849 434.499 163.318 C 452.71 185.276 463.169 210.721 463.169 237.892 C 463.169 315.562 377.941 379.317 269.289 385.862 L 269.289 385.872 Z" fill="#ffffff" style=""/>
</svg>